<?xml version="1.0" encoding="utf-8"?>
<!-- Generator: Adobe Illustrator 16.0.4, SVG Export Plug-In . SVG Version: 6.00 Build 0)  -->
<!DOCTYPE svg PUBLIC "-//W3C//DTD SVG 1.1//EN" "http://www.w3.org/Graphics/SVG/1.1/DTD/svg11.dtd">
<svg version="1.1" id="Layer_1" xmlns="http://www.w3.org/2000/svg" xmlns:xlink="http://www.w3.org/1999/xlink" x="0px" y="0px"
	 width="7px" height="7px" viewBox="0 0 7 7" enable-background="new 0 0 7 7" xml:space="preserve">
<path fill="#FFFFFF" d="M0,0v7h7V0H0z M6.3,4.7C6.1,5.1,5.9,5.4,5.6,5.6C5.4,5.9,5,6.1,4.7,6.3C4.3,6.4,3.9,6.5,3.5,6.5
	c-0.4,0-0.8-0.1-1.2-0.2C2,6.1,1.6,5.9,1.4,5.6C1.1,5.4,0.9,5.1,0.7,4.7C0.6,4.3,0.5,3.9,0.5,3.5c0-0.4,0.1-0.8,0.2-1.2
	c0.2-0.4,0.4-0.7,0.6-1s0.6-0.5,1-0.6c0.4-0.2,0.8-0.2,1.2-0.2c0.4,0,0.8,0.1,1.2,0.2c0.4,0.2,0.7,0.4,1,0.6c0.3,0.3,0.5,0.6,0.6,1
	s0.2,0.8,0.2,1.2C6.5,3.9,6.4,4.3,6.3,4.7z"/>
</svg>
