<?xml version="1.0" encoding="utf-8"?>
<!-- Generator: Adobe Illustrator 16.0.4, SVG Export Plug-In . SVG Version: 6.00 Build 0)  -->
<!DOCTYPE svg PUBLIC "-//W3C//DTD SVG 1.1//EN" "http://www.w3.org/Graphics/SVG/1.1/DTD/svg11.dtd">
<svg version="1.1" id="Layer_1" xmlns="http://www.w3.org/2000/svg" xmlns:xlink="http://www.w3.org/1999/xlink" x="0px" y="0px"
	 width="6px" height="92px" viewBox="0 0 6 92" enable-background="new 0 0 6 92" xml:space="preserve">
<g>
	<circle fill="#575756" cx="3" cy="24.1" r="2.7"/>
	<path fill="#575756" d="M2.5,20.5c0.2,0,0.3-0.1,0.5-0.1s0.3,0,0.5,0.1V4.6h2L3,0.3L0.5,4.6h2V20.5z"/>
	<g>
		<path fill="#575756" d="M3,62.5c0.2,0,0.3,0,0.5,0.1V27.8c-0.2,0-0.3,0.1-0.5,0.1s-0.3,0-0.5-0.1v34.8C2.7,62.5,2.8,62.5,3,62.5z"
			/>
		<circle fill="#575756" cx="3" cy="66.1" r="2.7"/>
		<path fill="#575756" d="M3.5,89.3V69.8c-0.2,0-0.3,0-0.5,0s-0.3,0-0.5,0v19.6c-0.4,0.2-0.8,0.6-0.8,1.1c0,0.7,0.6,1.3,1.2,1.3
			s1.2-0.6,1.2-1.3C4.2,90,3.9,89.5,3.5,89.3z"/>
	</g>
</g>
</svg>
