<?xml version="1.0" encoding="utf-8"?>
<!-- Generator: Adobe Illustrator 16.0.4, SVG Export Plug-In . SVG Version: 6.00 Build 0)  -->
<!DOCTYPE svg PUBLIC "-//W3C//DTD SVG 1.1//EN" "http://www.w3.org/Graphics/SVG/1.1/DTD/svg11.dtd">
<svg version="1.1" id="Layer_1" xmlns="http://www.w3.org/2000/svg" xmlns:xlink="http://www.w3.org/1999/xlink" x="0px" y="0px"
	 width="47px" height="47px" viewBox="0 0 47 47" enable-background="new 0 0 47 47" xml:space="preserve">
<g>
	<path fill="#C8C9CA" d="M23.5,46.9c-12.9,0-23.4-10.5-23.4-23.4c0-12.9,10.5-23.4,23.4-23.4c12.9,0,23.4,10.5,23.4,23.4
		C46.9,36.4,36.4,46.9,23.5,46.9z M23.5,0.4C10.7,0.4,0.4,10.7,0.4,23.5c0,12.8,10.4,23.1,23.1,23.1s23.1-10.4,23.1-23.1
		C46.6,10.7,36.3,0.4,23.5,0.4z"/>
	<g>
		<g>
			<path fill="#595757" d="M20.1,35.3c0-0.6-0.1-1.2-0.1-1.7h0c-0.1,0.5-0.3,1-0.5,1.5l-0.7,2h-0.4l-0.7-1.9
				c-0.2-0.6-0.4-1.1-0.5-1.6h0c0,0.5,0,1.2-0.1,1.8L17,37.1h-0.5l0.3-4h0.7l0.7,2c0.2,0.5,0.3,0.9,0.4,1.4h0
				c0.1-0.4,0.2-0.9,0.4-1.4l0.7-2h0.7l0.3,4h-0.5L20.1,35.3z"/>
			<path fill="#595757" d="M23.9,36.3c0,0.3,0,0.6,0,0.8h-0.5l0-0.5h0c-0.1,0.2-0.4,0.5-1,0.5c-0.5,0-1-0.3-1-1.3v-1.7H22v1.6
				c0,0.6,0.2,0.9,0.6,0.9c0.4,0,0.6-0.2,0.7-0.5c0-0.1,0-0.2,0-0.3v-1.8h0.5V36.3z"/>
			<path fill="#595757" d="M24.7,36.6c0.2,0.1,0.4,0.2,0.7,0.2c0.4,0,0.6-0.2,0.6-0.4c0-0.3-0.1-0.4-0.5-0.5
				c-0.5-0.2-0.8-0.5-0.8-0.8c0-0.5,0.4-0.9,1-0.9c0.3,0,0.6,0.1,0.7,0.2l-0.1,0.4c-0.1-0.1-0.3-0.2-0.6-0.2c-0.3,0-0.5,0.2-0.5,0.4
				c0,0.2,0.2,0.3,0.6,0.5c0.5,0.2,0.8,0.4,0.8,0.9c0,0.5-0.4,0.9-1.1,0.9c-0.3,0-0.6-0.1-0.8-0.2L24.7,36.6z"/>
			<path fill="#595757" d="M27.7,33.4c0,0.2-0.1,0.3-0.3,0.3c-0.2,0-0.3-0.1-0.3-0.3c0-0.2,0.1-0.3,0.3-0.3
				C27.6,33.1,27.7,33.2,27.7,33.4z M27.2,37.1v-2.9h0.5v2.9H27.2z"/>
			<path fill="#595757" d="M30.6,37c-0.1,0.1-0.4,0.2-0.8,0.2c-0.9,0-1.4-0.6-1.4-1.5c0-0.9,0.6-1.5,1.6-1.5c0.3,0,0.6,0.1,0.7,0.1
				l-0.1,0.4c-0.1-0.1-0.3-0.1-0.6-0.1c-0.7,0-1,0.5-1,1.1c0,0.7,0.4,1.1,1,1.1c0.3,0,0.5-0.1,0.6-0.1L30.6,37z"/>
		</g>
	</g>
	<path fill-rule="evenodd" clip-rule="evenodd" fill="#595757" d="M29.5,26.5V25h0c0-0.1,0-0.2,0-0.4v-6v-1.8c0-3.3-2.7-6-6-6
		s-6,2.7-6,6v1.8v6c0,0.1,0,0.2,0,0.4h0v1.4c0,0-3.5-0.1-3.5-3.9c0-2.2,1.1-3.1,2.1-3.6v-2.1c0-4.1,3.3-7.4,7.4-7.4
		c4.1,0,7.4,3.3,7.4,7.4V19c1,0.4,2.1,1.4,2.1,3.6C33.1,26.4,29.5,26.5,29.5,26.5z M18.9,26.5h-0.7v-7.8h0.7V26.5z M28.8,26.5h-0.7
		v-7.8h0.7V26.5z"/>
</g>
</svg>
