<?xml version="1.0" encoding="utf-8"?>
<!-- Generator: Adobe Illustrator 16.0.4, SVG Export Plug-In . SVG Version: 6.00 Build 0)  -->
<!DOCTYPE svg PUBLIC "-//W3C//DTD SVG 1.1//EN" "http://www.w3.org/Graphics/SVG/1.1/DTD/svg11.dtd">
<svg version="1.1" id="Layer_1" xmlns="http://www.w3.org/2000/svg" xmlns:xlink="http://www.w3.org/1999/xlink" x="0px" y="0px"
	 width="47px" height="47px" viewBox="0 0 47 47" enable-background="new 0 0 47 47" xml:space="preserve">
<g>
	<path fill="#C8C9CA" d="M23.5,46.9c-12.9,0-23.4-10.5-23.4-23.4S10.6,0.1,23.5,0.1c12.9,0,23.4,10.5,23.4,23.4S36.4,46.9,23.5,46.9
		z M23.5,0.4C10.7,0.4,0.4,10.7,0.4,23.5s10.4,23.1,23.1,23.1c12.8,0,23.1-10.4,23.1-23.1S36.3,0.4,23.5,0.4z"/>
	<g>
		<g>
			<path fill="#595757" d="M17.6,31.9c0.3,0,0.6-0.1,1-0.1c0.5,0,0.9,0.1,1.1,0.3c0.2,0.2,0.4,0.5,0.4,0.8c0,0.4-0.1,0.7-0.3,0.9
				c-0.3,0.3-0.7,0.4-1.2,0.4c-0.2,0-0.3,0-0.4,0v1.6h-0.5V31.9z M18.2,33.9c0.1,0,0.3,0,0.4,0c0.6,0,1-0.3,1-0.9
				c0-0.5-0.4-0.8-1-0.8c-0.2,0-0.4,0-0.5,0V33.9z"/>
			<path fill="#595757" d="M22.3,35.9l0-0.4h0C22,35.8,21.7,36,21.3,36c-0.6,0-0.9-0.4-0.9-0.8c0-0.7,0.6-1.1,1.7-1.1V34
				c0-0.2-0.1-0.7-0.7-0.7c-0.3,0-0.6,0.1-0.8,0.2l-0.1-0.3c0.2-0.2,0.6-0.3,1-0.3c0.9,0,1.1,0.6,1.1,1.2v1.1c0,0.3,0,0.5,0,0.7
				H22.3z M22.2,34.5c-0.6,0-1.2,0.1-1.2,0.7c0,0.3,0.2,0.5,0.5,0.5c0.4,0,0.6-0.2,0.7-0.5c0-0.1,0-0.1,0-0.2V34.5z"/>
			<path fill="#595757" d="M24.1,32.2c0,0.2-0.1,0.3-0.3,0.3c-0.2,0-0.3-0.1-0.3-0.3c0-0.2,0.1-0.3,0.3-0.3
				C24,31.9,24.1,32,24.1,32.2z M23.6,35.9V33h0.5v2.9H23.6z"/>
			<path fill="#595757" d="M25,33.8c0-0.3,0-0.5,0-0.8h0.5l0,0.5h0c0.1-0.3,0.5-0.5,1-0.5c0.4,0,1,0.2,1,1.2v1.7h-0.5v-1.7
				c0-0.5-0.2-0.9-0.7-0.9c-0.3,0-0.6,0.2-0.7,0.5c0,0.1,0,0.2,0,0.2v1.7H25V33.8z"/>
			<path fill="#595757" d="M28.9,32.2V33h0.8v0.4h-0.8V35c0,0.4,0.1,0.6,0.4,0.6c0.1,0,0.2,0,0.3,0l0,0.4c-0.1,0-0.3,0.1-0.5,0.1
				c-0.2,0-0.4-0.1-0.6-0.2c-0.2-0.2-0.2-0.4-0.2-0.8v-1.6h-0.4V33h0.4v-0.7L28.9,32.2z"/>
		</g>
	</g>
	<g>
		<path fill="#595757" d="M19.7,20.7c-1.2-0.2-2.5,0.6-3.3,2.5c-0.8,2-2.3,2.7-2.5,2.7c1.5,0.5,6.1,2,7.3-3.4
			C20.7,21.2,19.7,20.7,19.7,20.7z"/>
		<path fill="#595757" d="M21.5,18.6C21.1,19,21,19.3,20.6,20c0.3,0.2,0.9,0.7,1.3,1.6c0.8-0.5,1.2-0.5,1.6-0.9
			c2.8-2.4,9.8-11,9.6-11.2C32.8,9.2,24,15.8,21.5,18.6z"/>
	</g>
</g>
</svg>
