<?xml version="1.0" encoding="utf-8"?>
<!-- Generator: Adobe Illustrator 16.0.4, SVG Export Plug-In . SVG Version: 6.00 Build 0)  -->
<!DOCTYPE svg PUBLIC "-//W3C//DTD SVG 1.1//EN" "http://www.w3.org/Graphics/SVG/1.1/DTD/svg11.dtd">
<svg version="1.1" id="Layer_1" xmlns="http://www.w3.org/2000/svg" xmlns:xlink="http://www.w3.org/1999/xlink" x="0px" y="0px"
	 width="47px" height="47px" viewBox="0 0 47 47" enable-background="new 0 0 47 47" xml:space="preserve">
<g>
	<path fill="#C8C9CA" d="M23.5,46.9c-12.9,0-23.4-10.5-23.4-23.4c0-12.9,10.5-23.4,23.4-23.4s23.4,10.5,23.4,23.4
		C46.9,36.4,36.4,46.9,23.5,46.9z M23.5,0.4C10.7,0.4,0.4,10.7,0.4,23.5s10.4,23.1,23.1,23.1s23.1-10.4,23.1-23.1S36.3,0.4,23.5,0.4
		z"/>
	<g>
		<g>
			<path fill="#595757" d="M13.6,33.1c0.2,0,0.6-0.1,1-0.1c0.5,0,0.9,0.1,1.1,0.3c0.2,0.2,0.3,0.4,0.3,0.7c0,0.4-0.3,0.7-0.7,0.9v0
				c0.4,0.1,0.8,0.4,0.8,1c0,0.3-0.1,0.6-0.3,0.8c-0.3,0.3-0.7,0.4-1.4,0.4c-0.4,0-0.6,0-0.8,0V33.1z M14.1,34.8h0.5
				c0.6,0,0.9-0.3,0.9-0.7c0-0.5-0.4-0.7-0.9-0.7c-0.2,0-0.4,0-0.5,0V34.8z M14.1,36.7c0.1,0,0.3,0,0.4,0c0.5,0,1-0.2,1-0.8
				c0-0.6-0.5-0.8-1-0.8h-0.4V36.7z"/>
			<path fill="#595757" d="M18.5,37.1l0-0.4h0c-0.2,0.2-0.5,0.4-0.9,0.4c-0.6,0-0.9-0.4-0.9-0.8c0-0.7,0.6-1.1,1.7-1.1v-0.1
				c0-0.2-0.1-0.7-0.7-0.7c-0.3,0-0.6,0.1-0.8,0.2l-0.1-0.3c0.2-0.2,0.6-0.3,1-0.3c0.9,0,1.1,0.6,1.1,1.2v1.1c0,0.3,0,0.5,0,0.7
				H18.5z M18.4,35.6c-0.6,0-1.2,0.1-1.2,0.7c0,0.3,0.2,0.5,0.5,0.5c0.4,0,0.6-0.2,0.7-0.5c0-0.1,0-0.1,0-0.2V35.6z"/>
			<path fill="#595757" d="M19.7,36.6c0.2,0.1,0.4,0.2,0.7,0.2c0.4,0,0.6-0.2,0.6-0.4c0-0.3-0.1-0.4-0.5-0.5
				c-0.5-0.2-0.8-0.5-0.8-0.8c0-0.5,0.4-0.9,1-0.9c0.3,0,0.6,0.1,0.7,0.2l-0.1,0.4c-0.1-0.1-0.3-0.2-0.6-0.2c-0.3,0-0.5,0.2-0.5,0.4
				c0,0.2,0.2,0.3,0.6,0.5c0.5,0.2,0.8,0.4,0.8,0.9c0,0.5-0.4,0.9-1.1,0.9c-0.3,0-0.6-0.1-0.8-0.2L19.7,36.6z"/>
			<path fill="#595757" d="M22.4,35.8c0,0.7,0.5,1,1,1c0.4,0,0.6-0.1,0.8-0.2l0.1,0.4c-0.2,0.1-0.5,0.2-1,0.2
				c-0.9,0-1.4-0.6-1.4-1.5c0-0.9,0.5-1.6,1.4-1.6c0.9,0,1.2,0.8,1.2,1.4c0,0.1,0,0.2,0,0.2H22.4z M24,35.4c0-0.3-0.1-0.9-0.7-0.9
				c-0.5,0-0.8,0.5-0.8,0.9H24z"/>
			<path fill="#595757" d="M25.1,37.1c0-0.2,0-0.5,0-0.8v-3.5h0.5v1.8h0c0.2-0.3,0.5-0.5,1-0.5c0.7,0,1.2,0.6,1.2,1.5
				c0,1-0.7,1.6-1.3,1.6c-0.4,0-0.8-0.2-1-0.5h0l0,0.5H25.1z M25.7,35.9c0,0.1,0,0.1,0,0.2c0.1,0.4,0.4,0.6,0.8,0.6
				c0.6,0,0.9-0.5,0.9-1.1c0-0.6-0.3-1.1-0.9-1.1c-0.4,0-0.7,0.2-0.8,0.6c0,0.1,0,0.1,0,0.2V35.9z"/>
			<path fill="#595757" d="M30.2,37.1l0-0.4h0c-0.2,0.2-0.5,0.4-0.9,0.4c-0.6,0-0.9-0.4-0.9-0.8c0-0.7,0.6-1.1,1.7-1.1v-0.1
				c0-0.2-0.1-0.7-0.7-0.7c-0.3,0-0.6,0.1-0.8,0.2l-0.1-0.3c0.2-0.2,0.6-0.3,1-0.3c0.9,0,1.1,0.6,1.1,1.2v1.1c0,0.3,0,0.5,0,0.7
				H30.2z M30.1,35.6c-0.6,0-1.2,0.1-1.2,0.7c0,0.3,0.2,0.5,0.5,0.5c0.4,0,0.6-0.2,0.7-0.5c0-0.1,0-0.1,0-0.2V35.6z"/>
			<path fill="#595757" d="M31.4,32.8H32v4.3h-0.5V32.8z"/>
			<path fill="#595757" d="M32.9,32.8h0.5v4.3h-0.5V32.8z"/>
		</g>
	</g>
	<g id="Page-1">
		<g id="icon-2-baseball">
			<path id="baseball" fill="#595757" d="M29.3,24.7c-1.5,1.4-3.5,2.3-5.8,2.3s-4.3-0.9-5.8-2.3l0,0l0,0c0.4-0.3,0.7-0.7,1-1.1
				l0.5,0.4l0.4-0.6l-0.5-0.4c0.3-0.5,0.6-1.1,0.8-1.7l0.6,0.2l0.2-0.6l-0.6-0.2l0,0c0.2-0.6,0.3-1.2,0.3-1.9h0.7v-0.7h-0.7
				c0-0.6-0.1-1.3-0.3-1.9l0.6-0.2l-0.2-0.6l-0.6,0.2c-0.2-0.6-0.5-1.2-0.8-1.7l0.5-0.4L19.2,13l-0.5,0.4c-0.3-0.4-0.6-0.8-1-1.1
				l0,0c1.5-1.4,3.5-2.3,5.8-2.3s4.3,0.9,5.8,2.3l0,0c-0.4,0.3-0.7,0.7-1,1.1L27.8,13l-0.4,0.6l0.5,0.4c-0.3,0.5-0.6,1.1-0.8,1.7
				l-0.6-0.2l-0.2,0.6l0.6,0.2c-0.2,0.6-0.3,1.2-0.3,1.9h-0.7v0.7h0.7c0,0.6,0.1,1.3,0.3,1.9l0,0l-0.6,0.2l0.2,0.6l0.6-0.2
				c0.2,0.6,0.5,1.2,0.8,1.7l-0.5,0.4l0.4,0.6l0.5-0.4C28.6,24,28.9,24.4,29.3,24.7L29.3,24.7L29.3,24.7L29.3,24.7z M30.1,23.8
				c1.2-1.5,1.9-3.3,1.9-5.3c0-2.2-0.8-4.2-2.2-5.8c-0.3,0.3-0.7,0.7-0.9,1l0.6,0.4L29,14.8l-0.6-0.4c-0.3,0.5-0.5,1-0.7,1.5
				l0.7,0.2l-0.2,0.6l-0.7-0.2c-0.1,0.5-0.2,1.1-0.2,1.7h0.7v0.7h-0.7c0,0.6,0.1,1.1,0.2,1.7l0.7-0.2l0.2,0.6l-0.7,0.2
				c0.2,0.5,0.4,1,0.7,1.5l0.6-0.4l0.4,0.5l-0.6,0.4c0.3,0.4,0.6,0.7,0.9,1C29.8,24.3,30,24,30.1,23.8L30.1,23.8z M16.8,23.7
				c-1.1-1.4-1.8-3.3-1.8-5.2c0-2.2,0.8-4.2,2.2-5.8c0.3,0.3,0.7,0.7,0.9,1l-0.6,0.4l0.4,0.5l0.6-0.4c0.3,0.5,0.5,1,0.7,1.5
				l-0.7,0.2l0.2,0.6l0.7-0.2c0.1,0.5,0.2,1.1,0.2,1.7h-0.7v0.7h0.7c0,0.6-0.1,1.1-0.2,1.7l-0.7-0.2l-0.2,0.6l0.7,0.2
				c-0.2,0.5-0.4,1-0.7,1.5L18,22.2l-0.4,0.5l0.6,0.4c-0.3,0.4-0.6,0.7-0.9,1C17.2,24.3,16.9,23.9,16.8,23.7L16.8,23.7z"/>
		</g>
	</g>
</g>
</svg>
