<?xml version="1.0" encoding="utf-8"?>
<!-- Generator: Adobe Illustrator 16.0.4, SVG Export Plug-In . SVG Version: 6.00 Build 0)  -->
<!DOCTYPE svg PUBLIC "-//W3C//DTD SVG 1.1//EN" "http://www.w3.org/Graphics/SVG/1.1/DTD/svg11.dtd">
<svg version="1.1" id="Layer_1" xmlns="http://www.w3.org/2000/svg" xmlns:xlink="http://www.w3.org/1999/xlink" x="0px" y="0px"
	 width="47px" height="47px" viewBox="0 0 47 47" enable-background="new 0 0 47 47" xml:space="preserve">
<g>
	<path fill="#C8C9CA" d="M23.5,46.9c-12.9,0-23.4-10.5-23.4-23.4c0-12.9,10.5-23.4,23.4-23.4s23.4,10.5,23.4,23.4
		C46.9,36.4,36.4,46.9,23.5,46.9z M23.5,0.4C10.7,0.4,0.4,10.7,0.4,23.5s10.4,23.1,23.1,23.1s23.1-10.4,23.1-23.1S36.3,0.4,23.5,0.4
		z"/>
	<g>
		<g>
			<path fill="#595757" d="M17.7,37.1l-1.3-4h0.6l0.6,2c0.2,0.5,0.3,1,0.4,1.5h0c0.1-0.5,0.3-1,0.5-1.5l0.7-2h0.6l-1.4,4H17.7z"/>
			<path fill="#595757" d="M20.6,33.4c0,0.2-0.1,0.3-0.3,0.3c-0.2,0-0.3-0.1-0.3-0.3c0-0.2,0.1-0.3,0.3-0.3
				C20.5,33.1,20.6,33.2,20.6,33.4z M20,37.1v-2.9h0.5v2.9H20z"/>
			<path fill="#595757" d="M23.9,32.8v3.5c0,0.3,0,0.6,0,0.8h-0.5l0-0.5h0c-0.2,0.3-0.5,0.6-1,0.6c-0.7,0-1.2-0.6-1.2-1.5
				c0-1,0.6-1.6,1.3-1.6c0.4,0,0.7,0.2,0.9,0.4h0v-1.7H23.9z M23.4,35.4c0-0.1,0-0.2,0-0.2c-0.1-0.3-0.4-0.6-0.8-0.6
				c-0.5,0-0.9,0.5-0.9,1.1c0,0.6,0.3,1.1,0.9,1.1c0.4,0,0.7-0.2,0.8-0.6c0-0.1,0-0.1,0-0.2V35.4z"/>
			<path fill="#595757" d="M25.1,35.8c0,0.7,0.5,1,1,1c0.4,0,0.6-0.1,0.8-0.2L27,37c-0.2,0.1-0.5,0.2-1,0.2c-0.9,0-1.4-0.6-1.4-1.5
				s0.5-1.6,1.4-1.6c0.9,0,1.2,0.8,1.2,1.4c0,0.1,0,0.2,0,0.2H25.1z M26.6,35.4c0-0.3-0.1-0.9-0.7-0.9c-0.5,0-0.8,0.5-0.8,0.9H26.6z
				"/>
			<path fill="#595757" d="M30.4,35.6c0,1.1-0.7,1.5-1.4,1.5c-0.8,0-1.4-0.6-1.4-1.5c0-1,0.6-1.5,1.4-1.5
				C29.9,34.1,30.4,34.7,30.4,35.6z M28.1,35.7c0,0.6,0.4,1.1,0.9,1.1c0.5,0,0.9-0.5,0.9-1.1c0-0.5-0.2-1.1-0.9-1.1
				C28.4,34.5,28.1,35.1,28.1,35.7z"/>
		</g>
	</g>
	<path fill="#595757" d="M33.7,11.3c-0.9-1-1.8-1-2.3-1C28.3,10,23.5,10,23.5,10h0c0,0-4.8,0-7.9,0.2c-0.4,0.1-1.4,0.1-2.3,1
		c-0.7,0.7-0.9,2.4-0.9,2.4s-0.2,2-0.2,3.9v1.8c0,2,0.2,3.9,0.2,3.9s0.2,1.7,0.9,2.4c0.9,1,2,0.9,2.5,1c1.8,0.2,7.7,0.2,7.7,0.2
		s4.8,0,7.9-0.3c0.4-0.1,1.4-0.1,2.3-1c0.7-0.7,0.9-2.4,0.9-2.4s0.2-2,0.2-3.9v-1.8c0-2-0.2-3.9-0.2-3.9S34.4,12,33.7,11.3z
		 M20.7,22.8v-8.5l7.1,4.2L20.7,22.8z"/>
</g>
</svg>
