<?xml version="1.0" encoding="utf-8"?>
<!-- Generator: Adobe Illustrator 16.0.4, SVG Export Plug-In . SVG Version: 6.00 Build 0)  -->
<!DOCTYPE svg PUBLIC "-//W3C//DTD SVG 1.1//EN" "http://www.w3.org/Graphics/SVG/1.1/DTD/svg11.dtd">
<svg version="1.1" id="Layer_1" xmlns="http://www.w3.org/2000/svg" xmlns:xlink="http://www.w3.org/1999/xlink" x="0px" y="0px"
	 width="47px" height="47px" viewBox="0 0 47 47" enable-background="new 0 0 47 47" xml:space="preserve">
<g>
	<path fill="#C8C9CA" d="M23.5,46.9c-12.9,0-23.4-10.5-23.4-23.4S10.6,0.1,23.5,0.1c12.9,0,23.4,10.5,23.4,23.4S36.4,46.9,23.5,46.9
		z M23.5,0.4C10.7,0.4,0.4,10.7,0.4,23.5s10.4,23.1,23.1,23.1s23.1-10.4,23.1-23.1S36.3,0.4,23.5,0.4z"/>
	<g>
		<g>
			<path fill="#595757" d="M16.4,33.1c0.2,0,0.6-0.1,1-0.1c0.5,0,0.9,0.1,1.1,0.3c0.2,0.2,0.3,0.4,0.3,0.7c0,0.4-0.3,0.7-0.7,0.9v0
				c0.4,0.1,0.8,0.4,0.8,1c0,0.3-0.1,0.6-0.3,0.8c-0.3,0.3-0.7,0.4-1.4,0.4c-0.4,0-0.6,0-0.8,0V33.1z M17,34.8h0.5
				c0.6,0,0.9-0.3,0.9-0.7c0-0.5-0.4-0.7-0.9-0.7c-0.2,0-0.4,0-0.5,0V34.8z M17,36.7c0.1,0,0.3,0,0.4,0c0.5,0,1-0.2,1-0.8
				c0-0.6-0.5-0.8-1-0.8H17V36.7z"/>
			<path fill="#595757" d="M22.3,35.6c0,1.1-0.7,1.5-1.4,1.5c-0.8,0-1.4-0.6-1.4-1.5c0-1,0.6-1.5,1.4-1.5
				C21.8,34.1,22.3,34.7,22.3,35.6z M20,35.7c0,0.6,0.4,1.1,0.9,1.1c0.5,0,0.9-0.5,0.9-1.1c0-0.5-0.2-1.1-0.9-1.1
				C20.3,34.5,20,35.1,20,35.7z"/>
			<path fill="#595757" d="M25.6,35.6c0,1.1-0.7,1.5-1.4,1.5c-0.8,0-1.4-0.6-1.4-1.5c0-1,0.6-1.5,1.4-1.5
				C25,34.1,25.6,34.7,25.6,35.6z M23.3,35.7c0,0.6,0.4,1.1,0.9,1.1c0.5,0,0.9-0.5,0.9-1.1c0-0.5-0.2-1.1-0.9-1.1
				C23.6,34.5,23.3,35.1,23.3,35.7z"/>
			<path fill="#595757" d="M26.8,35.5L26.8,35.5c0.1-0.1,0.2-0.2,0.3-0.3l0.9-1h0.6l-1.1,1.2l1.3,1.7h-0.6l-1-1.4L26.8,36v1.1h-0.5
				v-4.3h0.5V35.5z"/>
			<path fill="#595757" d="M29,36.6c0.2,0.1,0.4,0.2,0.7,0.2c0.4,0,0.6-0.2,0.6-0.4c0-0.3-0.2-0.4-0.5-0.5C29.2,35.6,29,35.3,29,35
				c0-0.5,0.4-0.9,1-0.9c0.3,0,0.6,0.1,0.7,0.2l-0.1,0.4c-0.1-0.1-0.3-0.2-0.6-0.2c-0.3,0-0.5,0.2-0.5,0.4c0,0.2,0.2,0.3,0.6,0.5
				c0.5,0.2,0.8,0.4,0.8,0.9c0,0.5-0.4,0.9-1.1,0.9c-0.3,0-0.6-0.1-0.8-0.2L29,36.6z"/>
		</g>
	</g>
	<g>
		<g>
			<path fill-rule="evenodd" clip-rule="evenodd" fill="#595757" d="M31.9,14.4l-8.4-5.8l-8.4,5.8l8.4,5.8L31.9,14.4z M23.5,21.4
				L16,16.5l-1,1l8.4,5.8l8.4-5.8l-1-1L23.5,21.4z M23.5,24.6L16,19.7l-1,1l8.4,5.8l8.4-5.8l-1-1.1L23.5,24.6z"/>
		</g>
	</g>
</g>
</svg>
