<?xml version="1.0" encoding="utf-8"?>
<!-- Generator: Adobe Illustrator 16.0.4, SVG Export Plug-In . SVG Version: 6.00 Build 0)  -->
<!DOCTYPE svg PUBLIC "-//W3C//DTD SVG 1.1//EN" "http://www.w3.org/Graphics/SVG/1.1/DTD/svg11.dtd">
<svg version="1.1" id="Layer_1" xmlns="http://www.w3.org/2000/svg" xmlns:xlink="http://www.w3.org/1999/xlink" x="0px" y="0px"
	 width="47px" height="47px" viewBox="0 0 47 47" enable-background="new 0 0 47 47" xml:space="preserve">
<g>
	<path fill="#C8C9CA" d="M23.5,46.9c-12.9,0-23.4-10.5-23.4-23.4c0-12.9,10.5-23.4,23.4-23.4c12.9,0,23.4,10.5,23.4,23.4
		C46.9,36.4,36.4,46.9,23.5,46.9z M23.5,0.4C10.7,0.4,0.4,10.7,0.4,23.5s10.4,23.1,23.1,23.1s23.1-10.4,23.1-23.1S36.3,0.4,23.5,0.4
		z"/>
	<g>
		<g>
			<path fill="#595757" d="M14.4,33.1v4h-0.5v-4H14.4z"/>
			<path fill="#595757" d="M15.4,35c0-0.3,0-0.5,0-0.8h0.5l0,0.5h0c0.1-0.3,0.5-0.5,1-0.5c0.4,0,1,0.2,1,1.2v1.7h-0.5v-1.7
				c0-0.5-0.2-0.9-0.7-0.9c-0.3,0-0.6,0.2-0.7,0.5c0,0.1,0,0.2,0,0.2v1.7h-0.5V35z"/>
			<path fill="#595757" d="M19.3,33.4v0.8h0.8v0.4h-0.8v1.6c0,0.4,0.1,0.6,0.4,0.6c0.1,0,0.2,0,0.3,0l0,0.4c-0.1,0-0.3,0.1-0.5,0.1
				c-0.2,0-0.4-0.1-0.6-0.2c-0.2-0.2-0.2-0.4-0.2-0.8v-1.6h-0.4v-0.4h0.4v-0.7L19.3,33.4z"/>
			<path fill="#595757" d="M20.9,35.8c0,0.7,0.5,1,1,1c0.4,0,0.6-0.1,0.8-0.2l0.1,0.4c-0.2,0.1-0.5,0.2-1,0.2
				c-0.9,0-1.4-0.6-1.4-1.5c0-0.9,0.5-1.6,1.4-1.6c0.9,0,1.2,0.8,1.2,1.4c0,0.1,0,0.2,0,0.2H20.9z M22.5,35.4c0-0.3-0.1-0.9-0.7-0.9
				c-0.5,0-0.8,0.5-0.8,0.9H22.5z"/>
			<path fill="#595757" d="M23.7,35.1c0-0.3,0-0.6,0-0.9h0.5l0,0.6h0c0.1-0.4,0.4-0.6,0.8-0.6c0.1,0,0.1,0,0.2,0v0.5
				c-0.1,0-0.1,0-0.2,0c-0.4,0-0.6,0.3-0.7,0.7c0,0.1,0,0.2,0,0.2v1.5h-0.5V35.1z"/>
			<path fill="#595757" d="M25.6,35c0-0.3,0-0.5,0-0.8h0.5l0,0.5h0c0.1-0.3,0.5-0.5,1-0.5c0.4,0,1,0.2,1,1.2v1.7h-0.5v-1.7
				c0-0.5-0.2-0.9-0.7-0.9c-0.3,0-0.6,0.2-0.7,0.5c0,0.1,0,0.2,0,0.2v1.7h-0.5V35z"/>
			<path fill="#595757" d="M29.3,35.8c0,0.7,0.5,1,1,1c0.4,0,0.6-0.1,0.8-0.2l0.1,0.4c-0.2,0.1-0.5,0.2-1,0.2
				c-0.9,0-1.4-0.6-1.4-1.5c0-0.9,0.5-1.6,1.4-1.6c0.9,0,1.2,0.8,1.2,1.4c0,0.1,0,0.2,0,0.2H29.3z M30.8,35.4c0-0.3-0.1-0.9-0.7-0.9
				c-0.5,0-0.8,0.5-0.8,0.9H30.8z"/>
			<path fill="#595757" d="M32.6,33.4v0.8h0.8v0.4h-0.8v1.6c0,0.4,0.1,0.6,0.4,0.6c0.1,0,0.2,0,0.3,0l0,0.4c-0.1,0-0.3,0.1-0.5,0.1
				c-0.2,0-0.4-0.1-0.6-0.2c-0.2-0.2-0.2-0.4-0.2-0.8v-1.6h-0.4v-0.4h0.4v-0.7L32.6,33.4z"/>
		</g>
	</g>
	<g id="_x33_8">
		<g>
			<path fill="#595757" d="M32.2,10H14.8c-1.1,0-2,0.9-2,2v13c0,1.1,0.9,2,2,2h17.4c1.1,0,2-0.9,2-2V12C34.2,10.9,33.3,10,32.2,10z
				 M32,11.3c0.3,0,0.5,0.2,0.5,0.5s-0.2,0.5-0.5,0.5s-0.5-0.2-0.5-0.5S31.8,11.3,32,11.3z M28.4,11.3h2.3c0.2,0,0.4,0.2,0.4,0.4
				s-0.2,0.4-0.4,0.4h-2.3c-0.2,0-0.4-0.2-0.4-0.4C28,11.5,28.2,11.3,28.4,11.3z M33.1,25c0,0.5-0.4,0.9-0.9,0.9H14.8
				c-0.5,0-0.9-0.4-0.9-0.9V13.3h19.3V25z"/>
		</g>
		<g>
			<rect x="15.7" y="23.6" fill="#595757" width="7.3" height="0.9"/>
			<rect x="24" y="23.6" fill="#595757" width="7.3" height="0.9"/>
			<g>
				<rect x="22.9" y="16.2" fill="#595757" width="8.4" height="0.4"/>
				<rect x="22.9" y="14.9" fill="#595757" width="8.4" height="0.4"/>
				<rect x="22.9" y="17.6" fill="#595757" width="8.4" height="0.4"/>
				<rect x="22.9" y="18.9" fill="#595757" width="8.4" height="0.4"/>
				<rect x="15.8" y="22.1" fill="#595757" width="15.5" height="0.4"/>
				<rect x="15.8" y="20.8" fill="#595757" width="15.5" height="0.4"/>
			</g>
			<g>
				<path fill="#595757" d="M15.7,19.4c0,0.2,0.2,0.4,0.4,0.4h4.7c0.2,0,0.4-0.2,0.4-0.4v-4.1c0-0.2-0.2-0.4-0.4-0.4h-4.7
					c-0.2,0-0.4,0.2-0.4,0.4V19.4z"/>
				<path fill="#666666" d="M20.6,16.5l0.4,0.4v1.9c0,0.5-0.3,0.7-0.8,0.7h-1.2h-1.3h-1.2c-0.4,0-0.8-0.2-0.8-0.7v-0.4l1.3-1.2
					c0.2-0.2,0.4-0.3,0.5-0.3c0.1,0,0.3,0.1,0.5,0.3l1.6,1.4c0,0,0.1,0,0.1,0c0,0,0.1,0,0.1,0c0,0,0-0.1,0-0.2l-1-0.9l1-1
					c0.2-0.2,0.3-0.2,0.3-0.2C20.4,16.3,20.5,16.4,20.6,16.5z"/>
				<path fill="#808080" d="M17.9,16.2c0-0.4,0.3-0.6,0.6-0.6c0.4,0,0.6,0.3,0.6,0.6s-0.3,0.6-0.6,0.6
					C18.2,16.8,17.9,16.5,17.9,16.2z"/>
			</g>
		</g>
	</g>
</g>
</svg>
