<?xml version="1.0" encoding="utf-8"?>
<!-- Generator: Adobe Illustrator 16.0.4, SVG Export Plug-In . SVG Version: 6.00 Build 0)  -->
<!DOCTYPE svg PUBLIC "-//W3C//DTD SVG 1.1//EN" "http://www.w3.org/Graphics/SVG/1.1/DTD/svg11.dtd">
<svg version="1.1" id="Layer_1" xmlns="http://www.w3.org/2000/svg" xmlns:xlink="http://www.w3.org/1999/xlink" x="0px" y="0px"
	 width="47px" height="47px" viewBox="0 0 47 47" enable-background="new 0 0 47 47" xml:space="preserve">
<g>
	<path fill="#C8C9CA" d="M23.5,46.9c-12.9,0-23.4-10.5-23.4-23.4S10.6,0.1,23.5,0.1s23.4,10.5,23.4,23.4S36.4,46.9,23.5,46.9z
		 M23.5,0.4C10.7,0.4,0.4,10.7,0.4,23.5s10.4,23.1,23.1,23.1s23.1-10.4,23.1-23.1S36.3,0.4,23.5,0.4z"/>
	<g>
		<g>
			<path fill="#595757" d="M16.3,37c-0.2,0.1-0.6,0.2-1.1,0.2c-1.1,0-2-0.7-2-2c0-1.3,0.9-2.1,2.1-2.1c0.5,0,0.8,0.1,1,0.2l-0.1,0.4
				c-0.2-0.1-0.5-0.2-0.8-0.2c-0.9,0-1.6,0.6-1.6,1.7c0,1,0.6,1.6,1.6,1.6c0.3,0,0.6-0.1,0.9-0.2L16.3,37z"/>
			<path fill="#595757" d="M19.5,35.6c0,1.1-0.7,1.5-1.4,1.5c-0.8,0-1.4-0.6-1.4-1.5c0-1,0.6-1.5,1.4-1.5
				C18.9,34.1,19.5,34.7,19.5,35.6z M17.2,35.7c0,0.6,0.4,1.1,0.9,1.1c0.5,0,0.9-0.5,0.9-1.1c0-0.5-0.2-1.1-0.9-1.1
				C17.4,34.5,17.2,35.1,17.2,35.7z"/>
			<path fill="#595757" d="M22.8,35.6c0,1.1-0.7,1.5-1.4,1.5c-0.8,0-1.4-0.6-1.4-1.5c0-1,0.6-1.5,1.4-1.5
				C22.2,34.1,22.8,34.7,22.8,35.6z M20.5,35.7c0,0.6,0.4,1.1,0.9,1.1c0.5,0,0.9-0.5,0.9-1.1c0-0.5-0.2-1.1-0.9-1.1
				C20.7,34.5,20.5,35.1,20.5,35.7z"/>
			<path fill="#595757" d="M24,35.5L24,35.5c0.1-0.1,0.2-0.2,0.3-0.3l0.9-1h0.6l-1.1,1.2l1.3,1.7h-0.6l-1-1.4L24,36v1.1h-0.5v-4.3
				H24V35.5z"/>
			<path fill="#595757" d="M26.9,33.4c0,0.2-0.1,0.3-0.3,0.3c-0.2,0-0.3-0.1-0.3-0.3c0-0.2,0.1-0.3,0.3-0.3
				C26.8,33.1,26.9,33.2,26.9,33.4z M26.4,37.1v-2.9h0.5v2.9H26.4z"/>
			<path fill="#595757" d="M27.8,35c0-0.3,0-0.5,0-0.8h0.5l0,0.5h0c0.1-0.3,0.5-0.5,1-0.5c0.4,0,1,0.2,1,1.2v1.7h-0.5v-1.7
				c0-0.5-0.2-0.9-0.7-0.9c-0.3,0-0.6,0.2-0.7,0.5c0,0.1,0,0.2,0,0.2v1.7h-0.5V35z"/>
			<path fill="#595757" d="M33.6,34.2c0,0.2,0,0.4,0,0.8v1.7c0,0.7-0.1,1.1-0.4,1.3c-0.3,0.3-0.7,0.3-1.1,0.3c-0.3,0-0.7-0.1-1-0.2
				l0.1-0.4c0.2,0.1,0.5,0.2,0.9,0.2c0.5,0,0.9-0.3,0.9-1v-0.3h0c-0.2,0.3-0.5,0.5-0.9,0.5c-0.7,0-1.2-0.6-1.2-1.4
				c0-1,0.6-1.5,1.3-1.5c0.5,0,0.8,0.3,0.9,0.5h0l0-0.4H33.6z M33,35.3c0-0.1,0-0.2,0-0.2c-0.1-0.3-0.4-0.6-0.7-0.6
				c-0.5,0-0.9,0.4-0.9,1.1c0,0.6,0.3,1,0.9,1c0.3,0,0.6-0.2,0.7-0.5c0-0.1,0-0.2,0-0.3V35.3z"/>
		</g>
	</g>
	<g>
		<path fill="#808080" d="M29.9,14.5c0.5-1.1,0-1.2-0.4-1.5c-0.1-0.1-0.3-0.3-0.6-0.5c-0.7,0.8-4.4,5.3-6.8,6.8l0.1,0.1
			c0,0,0.7,1.3,1.8,0.4C25.1,18.9,29.4,15.6,29.9,14.5z"/>
		<path fill="#595757" d="M16.3,21.6c-0.1,0.1-0.2,0.1-0.3,0l-1-1c-0.1-0.1-0.1-0.2,0-0.3l4.2-4.2c0.1-0.1,0.2-0.1,0.3,0l1,1
			c0.1,0.1,0.1,0.2,0,0.3L16.3,21.6z"/>
		<path fill="#595757" d="M21.1,26.9c-0.1,0.1-0.2,0.1-0.3,0l-0.7-0.9c-0.1-0.1-0.1-0.2,0-0.3l4.3-3.7c0.1-0.1,0.2-0.1,0.3,0
			l0.7,0.9c0.1,0.1,0.1,0.2,0,0.3L21.1,26.9z"/>
		<path fill="#666666" d="M24.6,22.1C24.7,22.1,24.7,22.1,24.6,22.1l0.8,0.9c0.1,0.1,0.1,0.1,0,0.2l0,0c0,0,0.2-0.1,0.3-0.2
			c0,0,0.2,0,0.2,0s0.9,0.4,1,0.5c0.2,0.1,0.2,0.1,0.2,0.1c4.2-3.3,4.9-8,4.9-8L24.6,22.1z"/>
		<path fill="#666666" d="M25.7,10l-6.2,6.1l1,1c0.1,0.1,0.1,0.1,0.1,0.2l1.5,2c2.4-1.5,6.8-6.8,6.8-6.8C28.1,12,26.7,10.9,25.7,10z
			 M25.6,11.6c-0.2,0-0.4-0.2-0.4-0.4c0-0.2,0.2-0.4,0.4-0.4c0.2,0,0.4,0.2,0.4,0.4C26,11.4,25.8,11.6,25.6,11.6z"/>
	</g>
</g>
</svg>
