<?xml version="1.0" encoding="utf-8"?>
<!-- Generator: Adobe Illustrator 16.0.4, SVG Export Plug-In . SVG Version: 6.00 Build 0)  -->
<!DOCTYPE svg PUBLIC "-//W3C//DTD SVG 1.1//EN" "http://www.w3.org/Graphics/SVG/1.1/DTD/svg11.dtd">
<svg version="1.1" id="Layer_1" xmlns="http://www.w3.org/2000/svg" xmlns:xlink="http://www.w3.org/1999/xlink" x="0px" y="0px"
	 width="47px" height="47px" viewBox="0 0 47 47" enable-background="new 0 0 47 47" xml:space="preserve">
<g>
	<path fill="#C8C9CA" d="M23.5,46.9c-12.9,0-23.4-10.5-23.4-23.4S10.6,0.1,23.5,0.1s23.4,10.5,23.4,23.4S36.4,46.9,23.5,46.9z
		 M23.5,0.4C10.7,0.4,0.4,10.7,0.4,23.5s10.4,23.1,23.1,23.1s23.1-10.4,23.1-23.1S36.3,0.4,23.5,0.4z"/>
	<g>
		<g>
			<path fill="#595757" d="M9,33.1c0.3,0,0.6-0.1,1-0.1c0.5,0,0.9,0.1,1.1,0.3c0.2,0.2,0.4,0.5,0.4,0.8c0,0.4-0.1,0.7-0.3,0.9
				c-0.3,0.3-0.7,0.4-1.2,0.4c-0.2,0-0.3,0-0.4,0v1.6H9V33.1z M9.5,35.1c0.1,0,0.3,0,0.4,0c0.6,0,1-0.3,1-0.9c0-0.5-0.4-0.8-1-0.8
				c-0.2,0-0.4,0-0.5,0V35.1z"/>
			<path fill="#595757" d="M12.1,32.8h0.5v1.8h0c0.1-0.2,0.2-0.3,0.4-0.4c0.2-0.1,0.3-0.2,0.5-0.2c0.4,0,1,0.2,1,1.2v1.7h-0.5v-1.7
				c0-0.5-0.2-0.9-0.7-0.9c-0.3,0-0.6,0.2-0.7,0.5c0,0.1,0,0.2,0,0.3v1.8h-0.5V32.8z"/>
			<path fill="#595757" d="M18.1,35.6c0,1.1-0.7,1.5-1.4,1.5c-0.8,0-1.4-0.6-1.4-1.5c0-1,0.6-1.5,1.4-1.5
				C17.5,34.1,18.1,34.7,18.1,35.6z M15.8,35.7c0,0.6,0.4,1.1,0.9,1.1c0.5,0,0.9-0.5,0.9-1.1c0-0.5-0.2-1.1-0.9-1.1
				C16.1,34.5,15.8,35.1,15.8,35.7z"/>
			<path fill="#595757" d="M19.4,33.4v0.8h0.8v0.4h-0.8v1.6c0,0.4,0.1,0.6,0.4,0.6c0.1,0,0.2,0,0.3,0l0,0.4c-0.1,0-0.3,0.1-0.5,0.1
				c-0.2,0-0.4-0.1-0.6-0.2c-0.2-0.2-0.2-0.4-0.2-0.8v-1.6h-0.4v-0.4h0.4v-0.7L19.4,33.4z"/>
			<path fill="#595757" d="M23.3,35.6c0,1.1-0.7,1.5-1.4,1.5c-0.8,0-1.4-0.6-1.4-1.5c0-1,0.6-1.5,1.4-1.5
				C22.8,34.1,23.3,34.7,23.3,35.6z M21,35.7c0,0.6,0.4,1.1,0.9,1.1c0.5,0,0.9-0.5,0.9-1.1c0-0.5-0.2-1.1-0.9-1.1
				C21.3,34.5,21,35.1,21,35.7z"/>
			<path fill="#595757" d="M26.5,34.2c0,0.2,0,0.4,0,0.8v1.7c0,0.7-0.1,1.1-0.4,1.3c-0.3,0.3-0.7,0.3-1.1,0.3c-0.3,0-0.7-0.1-1-0.2
				l0.1-0.4c0.2,0.1,0.5,0.2,0.9,0.2c0.5,0,0.9-0.3,0.9-1v-0.3h0c-0.2,0.3-0.5,0.5-0.9,0.5c-0.7,0-1.2-0.6-1.2-1.4
				c0-1,0.6-1.5,1.3-1.5c0.5,0,0.8,0.3,0.9,0.5h0l0-0.4H26.5z M26,35.3c0-0.1,0-0.2,0-0.2c-0.1-0.3-0.4-0.6-0.7-0.6
				c-0.5,0-0.9,0.4-0.9,1.1c0,0.6,0.3,1,0.9,1c0.3,0,0.6-0.2,0.7-0.5c0-0.1,0-0.2,0-0.3V35.3z"/>
			<path fill="#595757" d="M27.3,35.1c0-0.3,0-0.6,0-0.9h0.5l0,0.6h0c0.1-0.4,0.4-0.6,0.8-0.6c0.1,0,0.1,0,0.2,0v0.5
				c-0.1,0-0.1,0-0.2,0c-0.4,0-0.6,0.3-0.7,0.7c0,0.1,0,0.2,0,0.2v1.5h-0.5V35.1z"/>
			<path fill="#595757" d="M30.9,37.1l0-0.4h0c-0.2,0.2-0.5,0.4-0.9,0.4c-0.6,0-0.9-0.4-0.9-0.8c0-0.7,0.6-1.1,1.7-1.1v-0.1
				c0-0.2-0.1-0.7-0.7-0.7c-0.3,0-0.6,0.1-0.8,0.2l-0.1-0.3c0.2-0.2,0.6-0.3,1-0.3c0.9,0,1.1,0.6,1.1,1.2v1.1c0,0.3,0,0.5,0,0.7
				H30.9z M30.8,35.6c-0.6,0-1.2,0.1-1.2,0.7c0,0.3,0.2,0.5,0.5,0.5c0.4,0,0.6-0.2,0.7-0.5c0-0.1,0-0.1,0-0.2V35.6z"/>
			<path fill="#595757" d="M32.2,35.2c0-0.4,0-0.7,0-0.9h0.5l0,0.5h0c0.2-0.4,0.6-0.6,1-0.6c0.7,0,1.2,0.6,1.2,1.5
				c0,1-0.6,1.6-1.3,1.6c-0.4,0-0.7-0.2-0.9-0.5h0v1.6h-0.5V35.2z M32.7,35.9c0,0.1,0,0.2,0,0.2c0.1,0.4,0.4,0.6,0.8,0.6
				c0.6,0,0.9-0.5,0.9-1.1c0-0.6-0.3-1.1-0.9-1.1c-0.4,0-0.7,0.3-0.8,0.7c0,0.1,0,0.1,0,0.2V35.9z"/>
			<path fill="#595757" d="M35.6,32.8h0.5v1.8h0c0.1-0.2,0.2-0.3,0.4-0.4c0.2-0.1,0.3-0.2,0.5-0.2c0.4,0,1,0.2,1,1.2v1.7h-0.5v-1.7
				c0-0.5-0.2-0.9-0.7-0.9c-0.3,0-0.6,0.2-0.7,0.5c0,0.1,0,0.2,0,0.3v1.8h-0.5V32.8z"/>
		</g>
	</g>
	<path fill="#595757" d="M24.9,19.9c0-0.6,0.5-1.1,1.1-1.1c0.6,0,1.1,0.5,1.1,1.1c0,0.6-0.5,1.1-1.1,1.1
		C25.4,21,24.9,20.5,24.9,19.9z M26,16.9c-1.6,0-3,1.3-3,3c0,1.7,1.3,3,3,3c1.7,0,3-1.3,3-3C29,18.2,27.7,16.9,26,16.9z M12.5,25.2
		c0,1,0.8,1.8,1.8,1.8h18.4c1,0,1.8-0.8,1.8-1.8V14.6c0-1-0.8-1.8-1.8-1.8H31l-2.4-2.4c-0.3-0.3-0.6-0.4-1-0.4h-3.2
		c-0.4,0-0.7,0.1-1,0.4l-2.3,2.4h-1.7v-1c0-0.4-0.4-0.8-0.8-0.8h-3c-0.4,0-0.8,0.4-0.8,0.8v1h-0.5c-1,0-1.8,0.8-1.8,1.8V25.2
		L12.5,25.2z M18.4,16.9h-2.8c-0.5,0-0.9-0.4-0.9-0.9s0.4-0.9,0.9-0.9h2.8c0.5,0,0.9,0.4,0.9,0.9S19,16.9,18.4,16.9z M26,15.1
		c2.7,0,4.8,2.2,4.8,4.8c0,2.7-2.2,4.8-4.8,4.8c-2.7,0-4.8-2.2-4.8-4.8C21.2,17.2,23.4,15.1,26,15.1z"/>
</g>
</svg>
