<?xml version="1.0" encoding="utf-8"?>
<!-- Generator: Adobe Illustrator 16.0.4, SVG Export Plug-In . SVG Version: 6.00 Build 0)  -->
<!DOCTYPE svg PUBLIC "-//W3C//DTD SVG 1.1//EN" "http://www.w3.org/Graphics/SVG/1.1/DTD/svg11.dtd">
<svg version="1.1" id="Layer_1" xmlns="http://www.w3.org/2000/svg" xmlns:xlink="http://www.w3.org/1999/xlink" x="0px" y="0px"
	 width="47px" height="47px" viewBox="0 0 47 47" enable-background="new 0 0 47 47" xml:space="preserve">
<g>
	<path fill="#C8C9CA" d="M23.5,46.9c-12.9,0-23.4-10.5-23.4-23.4S10.6,0.1,23.5,0.1s23.4,10.5,23.4,23.4S36.4,46.9,23.5,46.9z
		 M23.5,0.4C10.7,0.4,0.4,10.7,0.4,23.5s10.4,23.1,23.1,23.1s23.1-10.4,23.1-23.1S36.3,0.4,23.5,0.4z"/>
	<g>
		<g>
			<path fill="#595757" d="M12.6,33.5h-1.2v-0.4h3v0.4h-1.2v3.6h-0.5V33.5z"/>
			<path fill="#595757" d="M14.5,35.1c0-0.3,0-0.6,0-0.9H15l0,0.6h0c0.1-0.4,0.4-0.6,0.8-0.6c0.1,0,0.1,0,0.2,0v0.5
				c-0.1,0-0.1,0-0.2,0c-0.4,0-0.6,0.3-0.7,0.7c0,0.1,0,0.2,0,0.2v1.5h-0.5V35.1z"/>
			<path fill="#595757" d="M18.1,37.1l0-0.4h0c-0.2,0.2-0.5,0.4-0.9,0.4c-0.6,0-0.9-0.4-0.9-0.8c0-0.7,0.6-1.1,1.7-1.1v-0.1
				c0-0.2-0.1-0.7-0.7-0.7c-0.3,0-0.6,0.1-0.8,0.2l-0.1-0.3c0.2-0.2,0.6-0.3,1-0.3c0.9,0,1.1,0.6,1.1,1.2v1.1c0,0.3,0,0.5,0,0.7
				H18.1z M18,35.6c-0.6,0-1.2,0.1-1.2,0.7c0,0.3,0.2,0.5,0.5,0.5c0.4,0,0.6-0.2,0.7-0.5c0-0.1,0-0.1,0-0.2V35.6z"/>
			<path fill="#595757" d="M19.5,34.2l0.6,1.6c0.1,0.3,0.2,0.5,0.2,0.7h0c0.1-0.2,0.2-0.5,0.2-0.7l0.6-1.6h0.6l-1.1,2.9H20l-1.1-2.9
				H19.5z"/>
			<path fill="#595757" d="M22.4,35.8c0,0.7,0.5,1,1,1c0.4,0,0.6-0.1,0.8-0.2l0.1,0.4c-0.2,0.1-0.5,0.2-1,0.2
				c-0.9,0-1.4-0.6-1.4-1.5c0-0.9,0.5-1.6,1.4-1.6c0.9,0,1.2,0.8,1.2,1.4c0,0.1,0,0.2,0,0.2H22.4z M24,35.4c0-0.3-0.1-0.9-0.7-0.9
				c-0.5,0-0.8,0.5-0.8,0.9H24z"/>
			<path fill="#595757" d="M25.1,32.8h0.5v4.3h-0.5V32.8z"/>
			<path fill="#595757" d="M26.6,32.8h0.5v4.3h-0.5V32.8z"/>
			<path fill="#595757" d="M28.6,33.4c0,0.2-0.1,0.3-0.3,0.3c-0.2,0-0.3-0.1-0.3-0.3c0-0.2,0.1-0.3,0.3-0.3
				C28.4,33.1,28.6,33.2,28.6,33.4z M28,37.1v-2.9h0.5v2.9H28z"/>
			<path fill="#595757" d="M29.4,35c0-0.3,0-0.5,0-0.8h0.5l0,0.5h0c0.1-0.3,0.5-0.5,1-0.5c0.4,0,1,0.2,1,1.2v1.7h-0.5v-1.7
				c0-0.5-0.2-0.9-0.7-0.9c-0.3,0-0.6,0.2-0.7,0.5c0,0.1,0,0.2,0,0.2v1.7h-0.5V35z"/>
			<path fill="#595757" d="M35.2,34.2c0,0.2,0,0.4,0,0.8v1.7c0,0.7-0.1,1.1-0.4,1.3c-0.3,0.3-0.7,0.3-1.1,0.3c-0.3,0-0.7-0.1-1-0.2
				l0.1-0.4c0.2,0.1,0.5,0.2,0.9,0.2c0.5,0,0.9-0.3,0.9-1v-0.3h0c-0.2,0.3-0.5,0.5-0.9,0.5c-0.7,0-1.2-0.6-1.2-1.4
				c0-1,0.6-1.5,1.3-1.5c0.5,0,0.8,0.3,0.9,0.5h0l0-0.4H35.2z M34.7,35.3c0-0.1,0-0.2,0-0.2c-0.1-0.3-0.4-0.6-0.7-0.6
				c-0.5,0-0.9,0.4-0.9,1.1c0,0.6,0.3,1,0.9,1c0.3,0,0.6-0.2,0.7-0.5c0-0.1,0-0.2,0-0.3V35.3z"/>
		</g>
	</g>
	<path fill-rule="evenodd" clip-rule="evenodd" fill="#595757" d="M23.5,8.4c0.7,0,1.2,0.5,1.2,1.2v6.2l8.1,5v2.2l-8.1-2.7v4.2
		l1.6,1.6l0,1.7L23.5,27l-2.8,1l0-1.8l1.5-1.5l0-4.3l-8.1,2.8l0-2.2l8.1-5.1l0-6.2C22.3,9,22.9,8.4,23.5,8.4z"/>
</g>
</svg>
