<svg id="697079b6-6d86-4b92-9bb4-b228813a4efe" data-name="圖層 1" xmlns="http://www.w3.org/2000/svg" width="35" height="35" viewBox="0 0 35 35">
  <defs>
    <style>
      .\37 67f0727-28aa-4e55-a083-c34bf097657f {
        fill: #040000;
      }

      .\32 1935873-51bd-4b72-8e24-84534b0081f0 {
        fill: #070002;
      }
    </style>
  </defs>
  <title>icon-js</title>
  <g>
    <path class="767f0727-28aa-4e55-a083-c34bf097657f" d="M16,19.51c0,2.09-1.17,3.39-3,3.39a3.59,3.59,0,0,1-3-1.67,1,1,0,0,1,.27-1.46,1.06,1.06,0,0,1,1.46.28,1.5,1.5,0,0,0,1.25.76c.38,0,1,0,1-1.3V14.19H11.09a1.05,1.05,0,0,1,0-2.1H15a1,1,0,0,1,1,1.05Zm5.14,3.58a5.24,5.24,0,0,1-3.73-1.55,1,1,0,0,1,0-1.47,1,1,0,0,1,1.48,0,3.21,3.21,0,0,0,2.21.89C22,21,23,20.75,23,20.06s-.34-.9-2-1.39c-1.42-.43-3.57-1.08-3.57-3.56,0-1.85,1.61-3.09,4-3.09a5.84,5.84,0,0,1,3,.84,1,1,0,0,1-1.13,1.76,3.82,3.82,0,0,0-1.89-.51c-.88,0-1.91.26-1.91,1s.47,1.07,2.09,1.56c1.38.42,3.46,1,3.44,3.4,0,1.8-1.57,3-3.92,3"/>
    <path class="21935873-51bd-4b72-8e24-84534b0081f0" d="M0,35H35V0H0Zm33-2H2.05V2.05H33Z"/>
  </g>
</svg>
