<svg id="0f99a42d-ac84-42ba-9416-f099517eac0c" data-name="圖層 1" xmlns="http://www.w3.org/2000/svg" width="35" height="35" viewBox="0 0 35 35">
  <defs>
    <style>
      .\35 cc7d81c-aa08-45a4-97c4-77c1d42e09be {
        fill: #040000;
      }
    </style>
  </defs>
  <title>icon-css</title>
  <g>
    <path class="5cc7d81c-aa08-45a4-97c4-77c1d42e09be" d="M24.5,8.9h-14a.56.56,0,0,0-.56.62l1.28,14.33a1,1,0,0,0,.64.78L16.91,26a2.61,2.61,0,0,0,1.18,0l5.05-1.4a.94.94,0,0,0,.64-.77L25.06,9.52a.56.56,0,0,0-.56-.62m-2.43,5.17h0L18.11,15.7a.13.13,0,0,0-.07.14.12.12,0,0,0,.12.1h3.08a.57.57,0,0,1,.42.19.58.58,0,0,1,.15.45l-.48,4.5a.58.58,0,0,1-.38.48l-3.27,1.15a.5.5,0,0,1-.38,0l-3.24-1.12a.59.59,0,0,1-.39-.48l-.21-2a.36.36,0,0,1,.09-.3.38.38,0,0,1,.28-.12h.91a.37.37,0,0,1,.37.33l.14,1.26L17.5,21l2.25-.79.28-2.6H13.65a.37.37,0,0,1-.38-.34l-.12-1.1a.36.36,0,0,1,.23-.39l4.09-1.69a.11.11,0,0,0,.06-.11.11.11,0,0,0-.1-.09H13.12a.25.25,0,0,1-.25-.23l-.12-1.18a.25.25,0,0,1,.06-.2.27.27,0,0,1,.19-.08h9a.25.25,0,0,1,.19.09.22.22,0,0,1,.06.19Z"/>
    <path class="5cc7d81c-aa08-45a4-97c4-77c1d42e09be" d="M0,35H35V0H0Zm33-2H2.05V2.05H33Z"/>
  </g>
</svg>
