<svg id="76303487-e2b3-4ba6-a90d-be00047c4cf3" data-name="圖層 1" xmlns="http://www.w3.org/2000/svg" width="35" height="35" viewBox="0 0 35 35">
  <defs>
    <style>
      .\39 70030b6-08e5-4a90-9860-66abbb416cb1 {
        fill: #040000;
      }
    </style>
  </defs>
  <title>icon-id</title>
  <g>
    <rect class="970030b6-08e5-4a90-9860-66abbb416cb1" x="11.23" y="12.41" width="2.26" height="11.65"/>
    <path class="970030b6-08e5-4a90-9860-66abbb416cb1" d="M0,35H35V0H0Zm33-2H2.05V2.05H33Z"/>
    <path class="970030b6-08e5-4a90-9860-66abbb416cb1" d="M24,21.54V12.09h-2.2V17a3.35,3.35,0,0,0-2.91-1.65c-2,0-3.84,1.77-3.84,4.44a4.19,4.19,0,0,0,4.09,4.47,3.45,3.45,0,0,0,3-1.66,1.41,1.41,0,0,0,1.44,1.61,4.72,4.72,0,0,0,.93-.12V22.19c-.18,0-.5-.42-.5-.65m-2.2-.63a2.37,2.37,0,0,1-2.09,1.45,2.46,2.46,0,0,1-2.37-2.55,2.46,2.46,0,0,1,2.24-2.62,2.78,2.78,0,0,1,2.22,1.67Z"/>
  </g>
</svg>
