<svg id="97b7e22e-feb1-466c-baca-43f95915ec58" data-name="圖層 1" xmlns="http://www.w3.org/2000/svg" width="35" height="35" viewBox="0 0 35 35">
  <defs>
    <style>
      .e67eacb9-46b8-44d3-befc-26c5ce5eb3f5 {
        fill: #040000;
      }
    </style>
  </defs>
  <title>icon-ps</title>
  <g>
    <path class="e67eacb9-46b8-44d3-befc-26c5ce5eb3f5" d="M.49,35.49h35V.49H.49Zm32.95-2.05H2.54V2.54h30.9Z"/>
    <path class="e67eacb9-46b8-44d3-befc-26c5ce5eb3f5" d="M15.06,12.91H10.12V24.56h2.27V20.65h2.75a3.76,3.76,0,0,0,3.63-3.87,3.87,3.87,0,0,0-3.71-3.87M15,18.67H12.39V14.89h2.52a1.72,1.72,0,0,1,1.56,1.89c0,1.14-.67,1.89-1.46,1.89"/>
    <path class="e67eacb9-46b8-44d3-befc-26c5ce5eb3f5" d="M23.53,19.4c-.32-.07-1.7-.3-1.7-1.08,0-.63.52-1,1.32-1a4.51,4.51,0,0,1,2.49.95L26.53,17a4.77,4.77,0,0,0-3.37-1.19c-1.79,0-3.37,1-3.37,2.84s2.5,2.24,3.06,2.4,1.89.42,1.89,1.16-.58.95-1.41.95a5.64,5.64,0,0,1-3-1.13l-.82,1.38a6.16,6.16,0,0,0,3.89,1.33c1.07,0,3.48-.34,3.48-2.72,0-2-2.74-2.44-3.33-2.6"/>
  </g>
</svg>
