<svg id="75c8c244-193f-4813-b253-61956f95c41e" data-name="圖層 1" xmlns="http://www.w3.org/2000/svg" width="35" height="35" viewBox="0 0 35 35">
  <defs>
    <style>
      .\38 e01576c-7b93-4de3-bbac-d00cab5afbce {
        fill: #040000;
      }
    </style>
  </defs>
  <title>icon-html</title>
  <g>
    <path class="8e01576c-7b93-4de3-bbac-d00cab5afbce" d="M10.2,8.92a.25.25,0,0,0-.26.28l1.33,14.92a.43.43,0,0,0,.3.36l5.64,1.57a1.32,1.32,0,0,0,.56,0l5.66-1.57a.43.43,0,0,0,.3-.36L25.06,9.2a.25.25,0,0,0-.26-.28Zm12,3.42c0,.14,0,.38-.05.54l0,.39c0,.16,0,.38,0,.5s0,.21,0,.21h-7a.26.26,0,0,0-.26.29L15,15.64a.32.32,0,0,0,.31.29h6.38a.23.23,0,0,1,.24.25c0,.14,0,.39-.05.54l-.4,4.43c0,.16,0,.36,0,.45s-.14.2-.29.24l-3.33.92-.28.08-.29-.08-3.33-.92a.46.46,0,0,1-.31-.36l-.21-2.42a.26.26,0,0,1,.26-.28H15a.33.33,0,0,1,.32.28l.08,1a.43.43,0,0,0,.3.36l1.56.42.28.07.28-.07,1.57-.42a.46.46,0,0,0,.3-.36l.17-1.89a.27.27,0,0,0-.26-.29h-6a.33.33,0,0,1-.32-.29l-.41-4.66c0-.16,0-.4-.05-.54a.25.25,0,0,1,.26-.26h9a.25.25,0,0,1,.26.26"/>
    <path class="8e01576c-7b93-4de3-bbac-d00cab5afbce" d="M0,35H35V0H0Zm33-2H2.05V2.05H33Z"/>
  </g>
</svg>
