<svg id="f63f31a9-c179-45cd-a675-dcb461aee433" data-name="圖層 1" xmlns="http://www.w3.org/2000/svg" width="35" height="35" viewBox="0 0 35 35">
  <defs>
    <style>
      .e57e75f7-9611-476c-878d-072b97814558 {
        fill: #040000;
      }
    </style>
  </defs>
  <title>icon-pr</title>
  <g>
    <path class="e57e75f7-9611-476c-878d-072b97814558" d="M0,35H35V0H0Zm33-2H2.05V2.05H33Z"/>
    <path class="e57e75f7-9611-476c-878d-072b97814558" d="M15.67,12.41H10.73V24.06H13v-3.9h2.76a3.76,3.76,0,0,0,3.62-3.87,3.87,3.87,0,0,0-3.7-3.88m-.05,5.76H13V14.4h2.53a1.72,1.72,0,0,1,1.56,1.89c0,1.14-.67,1.88-1.46,1.88"/>
    <path class="e57e75f7-9611-476c-878d-072b97814558" d="M25.85,17.37v-2a3.28,3.28,0,0,0-3.1,1.93V15.47h-2v8.59h2.19v-5.2a3,3,0,0,1,2.92-1.49"/>
  </g>
</svg>
