<svg id="56d94e8a-e120-4bc3-83fd-f52c103b3e05" data-name="圖層 1" xmlns="http://www.w3.org/2000/svg" width="35" height="35" viewBox="0 0 35 35">
  <defs>
    <style>
      .f4546c5f-338e-4027-b8c3-42b3ab469f4a {
        fill: #040000;
      }
    </style>
  </defs>
  <title>icon-xd</title>
  <g>
    <polygon class="f4546c5f-338e-4027-b8c3-42b3ab469f4a" points="18.25 12.41 15.8 12.41 12.92 16.75 10.01 12.41 7.55 12.41 11.7 18.32 7.68 24.06 10.14 24.06 12.92 19.89 15.67 24.06 18.12 24.06 14.1 18.32 18.25 12.41"/>
    <path class="f4546c5f-338e-4027-b8c3-42b3ab469f4a" d="M0,35H35V0H0Zm33-2H2.05V2.05H33Z"/>
    <path class="f4546c5f-338e-4027-b8c3-42b3ab469f4a" d="M27.12,21.54V12.09H24.93V17A3.35,3.35,0,0,0,22,15.32c-2,0-3.84,1.77-3.84,4.44a4.19,4.19,0,0,0,4.09,4.47,3.41,3.41,0,0,0,3-1.66,1.42,1.42,0,0,0,1.45,1.61,4.72,4.72,0,0,0,.93-.12V22.19c-.18,0-.51-.42-.51-.65m-2.19-.63a2.37,2.37,0,0,1-2.09,1.45,2.47,2.47,0,0,1-2.38-2.55,2.47,2.47,0,0,1,2.25-2.62,2.78,2.78,0,0,1,2.22,1.67Z"/>
  </g>
</svg>
