<?xml version="1.0" encoding="utf-8"?>
<!-- Generator: Adobe Illustrator 16.0.4, SVG Export Plug-In . SVG Version: 6.00 Build 0)  -->
<!DOCTYPE svg PUBLIC "-//W3C//DTD SVG 1.1//EN" "http://www.w3.org/Graphics/SVG/1.1/DTD/svg11.dtd">
<svg version="1.1" id="Layer_1" xmlns="http://www.w3.org/2000/svg" xmlns:xlink="http://www.w3.org/1999/xlink" x="0px" y="0px"
	 width="238.7px" height="78.7px" viewBox="0 0 238.7 78.7" enable-background="new 0 0 238.7 78.7" xml:space="preserve">
<g>
	<path fill="#575756" d="M77.2,39.3L77.2,39.3L77.2,39.3C76.8,18.6,60.1,1.8,39.4,1.5l0,0l0,0l0,0l0,0C18.6,1.8,1.9,18.6,1.5,39.3
		l0,0l0,0l0,0l0,0C1.8,60,18.6,76.8,39.3,77.1l0,0C60.1,76.8,76.8,60.1,77.2,39.3L77.2,39.3L77.2,39.3z M39.3,67.9
		C23.7,67.6,11.1,55,10.7,39.3C11,23.7,23.6,11.1,39.3,10.7c15.7,0.4,28.3,13,28.6,28.6C67.6,54.9,55,67.5,39.3,67.9z"/>
	<path fill="#FFFFFF" d="M39.3,78.6C17.7,78.3,0.4,61.1,0,39.5v-0.1v-0.1C0.4,17.5,17.7,0.3,39.3,0c21.7,0.3,39,17.5,39.4,39.2v0.1
		v0.1C78.3,61,61.1,78.3,39.3,78.6L39.3,78.6z M3,39.4c0.4,20,16.3,35.9,36.3,36.2c20-0.3,36-16.3,36.3-36.3v-0.1l0,0
		C75.3,19.2,59.4,3.3,39.3,3C19.4,3.3,3.4,19.2,3,39.2v0.1V39.4z M39.4,69.4C22.8,69,9.6,55.8,9.3,39.3c0.3-16.6,13.5-29.7,30-30.1
		h0.1c16.5,0.3,29.7,13.5,30,30C69.1,55.8,55.9,69,39.4,69.4z M39.3,12.3c-14.9,0.3-26.8,12.2-27.1,27.1c0.3,14.8,12.2,26.7,27.1,27
		c14.8-0.3,26.7-12.2,27-27.1C66.1,24.5,54.2,12.6,39.3,12.3z"/>
	<path fill="#575756" d="M31.9,35.2c-0.2,0.1-0.6,0.2-1.1,0.2c-1.1,0-2-0.7-2-2c0-1.3,0.9-2.1,2.1-2.1c0.5,0,0.8,0.1,1,0.2l-0.1,0.4
		c-0.2-0.1-0.5-0.2-0.8-0.2c-0.9,0-1.6,0.6-1.6,1.7c0,1,0.6,1.6,1.6,1.6c0.3,0,0.6-0.1,0.9-0.2V35.2z"/>
	<path fill="#575756" d="M33.1,31.2v1.7h2v-1.7h0.5v4H35v-1.9h-2v1.9h-0.5v-4H33.1z"/>
	<path fill="#575756" d="M37,31.2v4h-0.5v-4H37z"/>
	<path fill="#575756" d="M37.9,35.3v-4h0.6l1.3,2c0.3,0.5,0.5,0.9,0.7,1.3l0,0c0-0.5-0.1-1-0.1-1.7v-1.7h0.5v4h-0.5l-1.3-2.1
		c-0.3-0.5-0.6-0.9-0.8-1.3l0,0c0,0.5,0,1,0,1.7v1.7L37.9,35.3L37.9,35.3z"/>
	<path fill="#575756" d="M43.9,33.4h-1.6v1.5h1.8v0.4h-2.3v-4H44v0.4h-1.7V33h1.6V33.4z"/>
	<path fill="#575756" d="M44.7,34.6c0.2,0.1,0.6,0.3,0.9,0.3c0.5,0,0.8-0.3,0.8-0.7c0-0.4-0.2-0.6-0.8-0.8c-0.7-0.2-1.1-0.6-1.1-1.1
		c0-0.6,0.5-1.1,1.3-1.1c0.4,0,0.7,0.1,0.9,0.2l-0.1,0.4c-0.1-0.1-0.4-0.2-0.8-0.2c-0.6,0-0.8,0.3-0.8,0.6c0,0.4,0.2,0.6,0.8,0.8
		c0.7,0.3,1,0.6,1,1.2c0,0.6-0.5,1.2-1.4,1.2c-0.4,0-0.8-0.1-1-0.3L44.7,34.6z"/>
	<path fill="#575756" d="M49.8,33.4h-1.6v1.5H50v0.4h-2.3v-4h2.2v0.4h-1.7V33h1.6V33.4z"/>
	<path fill="#868686" d="M21.7,40.7c0-0.6-0.1-1.2-0.1-1.7l0,0c-0.1,0.5-0.3,1-0.5,1.5l-0.7,2H20l-0.7-1.9C19.1,40,19,39.4,18.8,39
		l0,0c0,0.5,0,1.2-0.1,1.8l-0.1,1.7h-0.5l0.3-4h0.7l0.7,2c0.2,0.5,0.3,0.9,0.4,1.4l0,0c0.1-0.4,0.2-0.9,0.4-1.4l0.7-2H22l0.3,4h-0.5
		L21.7,40.7z"/>
	<path fill="#868686" d="M25.7,41c0,1.1-0.7,1.5-1.4,1.5c-0.8,0-1.4-0.6-1.4-1.5c0-1,0.6-1.5,1.4-1.5C25.2,39.5,25.7,40.1,25.7,41z
		 M23.4,41c0,0.6,0.4,1.1,0.9,1.1s0.9-0.5,0.9-1.1c0-0.5-0.2-1.1-0.9-1.1C23.7,39.9,23.4,40.5,23.4,41z"/>
	<path fill="#868686" d="M27,38.7v0.8h0.8V40H27v1.6c0,0.4,0.1,0.6,0.4,0.6c0.1,0,0.2,0,0.3,0v0.4c-0.1,0-0.3,0.1-0.5,0.1
		c-0.2,0-0.4-0.1-0.6-0.2c-0.1-0.2-0.2-0.4-0.2-0.8V40H26v-0.4h0.4v-0.7L27,38.7z"/>
	<path fill="#868686" d="M28.4,38.2h0.5V40l0,0c0.1-0.2,0.2-0.3,0.4-0.4c0.2-0.1,0.3-0.2,0.5-0.2c0.4,0,1,0.2,1,1.2v1.7h-0.5v-1.7
		c0-0.5-0.2-0.9-0.7-0.9c-0.3,0-0.6,0.2-0.7,0.5c0,0.1,0,0.2,0,0.3v1.8h-0.5V38.2z"/>
	<path fill="#868686" d="M32,41.1c0,0.7,0.5,1,1,1c0.4,0,0.6-0.1,0.8-0.2l0.1,0.4c-0.2,0.1-0.5,0.2-1,0.2c-0.9,0-1.4-0.6-1.4-1.5
		c0-0.9,0.5-1.6,1.4-1.6s1.2,0.8,1.2,1.4c0,0.1,0,0.2,0,0.2L32,41.1L32,41.1z M33.6,40.8c0-0.3-0.1-0.9-0.7-0.9
		c-0.5,0-0.8,0.5-0.8,0.9H33.6z"/>
	<path fill="#868686" d="M34.7,40.5c0-0.3,0-0.6,0-0.9h0.5v0.6l0,0c0.1-0.4,0.4-0.6,0.8-0.6c0.1,0,0.1,0,0.1,0V40
		c-0.1,0-0.1,0-0.2,0c-0.4,0-0.6,0.3-0.7,0.7c0,0.1,0,0.2,0,0.2v1.5h-0.5V40.5z"/>
	<path fill="#868686" d="M38,38.2h0.5v4.3H38V38.2z"/>
	<path fill="#868686" d="M41,42.5v-0.4l0,0c-0.2,0.2-0.5,0.4-0.9,0.4c-0.6,0-0.9-0.4-0.9-0.8c0-0.7,0.6-1.1,1.7-1.1v-0.1
		c0-0.2-0.1-0.7-0.7-0.7c-0.3,0-0.6,0.1-0.8,0.2l-0.1-0.3c0.2-0.2,0.6-0.3,1-0.3c0.9,0,1.1,0.6,1.1,1.2v1.1c0,0.3,0,0.5,0,0.7H41
		V42.5z M40.9,41c-0.6,0-1.2,0.1-1.2,0.7c0,0.3,0.2,0.5,0.5,0.5c0.4,0,0.6-0.2,0.7-0.5c0-0.1,0-0.1,0-0.2V41z"/>
	<path fill="#868686" d="M42.3,40.4c0-0.3,0-0.5,0-0.8h0.5v0.5l0,0c0.1-0.3,0.5-0.5,1-0.5c0.4,0,1,0.2,1,1.2v1.7h-0.5v-1.7
		c0-0.5-0.2-0.9-0.7-0.9c-0.3,0-0.6,0.2-0.7,0.5c0,0.1,0,0.2,0,0.2v1.7h-0.5v-1.9H42.3z"/>
	<path fill="#868686" d="M48.1,39.6c0,0.2,0,0.4,0,0.8v1.7c0,0.7-0.1,1.1-0.4,1.3c-0.3,0.3-0.7,0.3-1.1,0.3c-0.3,0-0.7-0.1-1-0.2
		l0.1-0.4c0.2,0.1,0.5,0.2,0.9,0.2c0.5,0,0.9-0.3,0.9-1V42l0,0c-0.2,0.3-0.5,0.5-0.9,0.5c-0.7,0-1.2-0.6-1.2-1.4
		c0-1,0.6-1.5,1.3-1.5c0.5,0,0.8,0.3,0.9,0.5l0,0v-0.4h0.5V39.6z M47.5,40.7c0-0.1,0-0.2,0-0.2c-0.1-0.3-0.4-0.6-0.7-0.6
		c-0.5,0-0.9,0.4-0.9,1.1c0,0.6,0.3,1,0.9,1c0.3,0,0.6-0.2,0.7-0.5c0-0.1,0-0.2,0-0.3V40.7z"/>
	<path fill="#868686" d="M51.4,41.7c0,0.3,0,0.6,0,0.8h-0.5V42l0,0c-0.1,0.2-0.4,0.5-1,0.5c-0.5,0-1-0.3-1-1.3v-1.7h0.5v1.6
		c0,0.6,0.2,0.9,0.6,0.9s0.6-0.2,0.7-0.5c0-0.1,0-0.2,0-0.3v-1.8h0.5v2.3H51.4z"/>
	<path fill="#868686" d="M53.9,42.5v-0.4l0,0c-0.2,0.2-0.5,0.4-0.9,0.4c-0.6,0-0.9-0.4-0.9-0.8c0-0.7,0.6-1.1,1.7-1.1v-0.1
		c0-0.2-0.1-0.7-0.7-0.7c-0.3,0-0.6,0.1-0.8,0.2l-0.1-0.3c0.2-0.2,0.6-0.3,1-0.3c0.9,0,1.1,0.6,1.1,1.2v1.1c0,0.3,0,0.5,0,0.7h-0.4
		V42.5z M53.8,41c-0.6,0-1.2,0.1-1.2,0.7c0,0.3,0.2,0.5,0.5,0.5c0.4,0,0.6-0.2,0.7-0.5c0-0.1,0-0.1,0-0.2V41z"/>
	<path fill="#868686" d="M57.6,39.6c0,0.2,0,0.4,0,0.8v1.7c0,0.7-0.1,1.1-0.4,1.3c-0.3,0.3-0.7,0.3-1.1,0.3c-0.3,0-0.7-0.1-1-0.2
		l0.1-0.4c0.2,0.1,0.5,0.2,0.9,0.2c0.5,0,0.9-0.3,0.9-1V42l0,0c-0.2,0.3-0.5,0.5-0.9,0.5c-0.7,0-1.2-0.6-1.2-1.4
		c0-1,0.6-1.5,1.3-1.5c0.5,0,0.8,0.3,0.9,0.5l0,0v-0.4h0.5V39.6z M57.1,40.7c0-0.1,0-0.2,0-0.2c-0.1-0.3-0.4-0.6-0.7-0.6
		c-0.5,0-0.9,0.4-0.9,1.1c0,0.6,0.3,1,0.9,1c0.3,0,0.6-0.2,0.7-0.5c0-0.1,0-0.2,0-0.3V40.7z"/>
	<path fill="#868686" d="M58.8,41.1c0,0.7,0.5,1,1,1c0.4,0,0.6-0.1,0.8-0.2l0.1,0.4c-0.2,0.1-0.5,0.2-1,0.2c-0.9,0-1.4-0.6-1.4-1.5
		c0-0.9,0.5-1.6,1.4-1.6c0.9,0,1.2,0.8,1.2,1.4c0,0.1,0,0.2,0,0.2L58.8,41.1L58.8,41.1z M60.3,40.8c0-0.3-0.1-0.9-0.7-0.9
		c-0.5,0-0.8,0.5-0.8,0.9H60.3z"/>
</g>
<g>
	<path fill="#575756" d="M157.2,39.3L157.2,39.3L157.2,39.3c-0.3-20.8-17.1-37.5-37.8-37.8l0,0l0,0l0,0l0,0
		C98.6,1.8,81.9,18.6,81.6,39.3h9.3c0.3-15.6,12.9-28.2,28.6-28.6c15.6,0.3,28.2,12.9,28.6,28.6c-0.3,15.6-12.9,28.2-28.6,28.6v9.3
		C140.1,76.8,156.8,60.1,157.2,39.3L157.2,39.3L157.2,39.3z"/>
	<path fill="#FFFFFF" d="M117.8,78.7V66.4h1.5c14.9-0.3,26.8-12.2,27.1-27.1c-0.3-14.8-12.2-26.7-27.1-27
		c-14.8,0.3-26.7,12.2-27,27.1v1.5H79.9v-1.5c0.3-21.7,17.6-39,39.3-39.3c21.7,0.3,38.9,17.5,39.4,39l0.1,0.2v0.3
		c-0.4,21.7-17.7,38.8-39.3,39.2L117.8,78.7z M120.8,69.3v6.3c19.3-1.1,34.5-16.7,34.8-36.2v-0.1v-0.1c-0.4-20-16.3-35.9-36.3-36.2
		C99.8,3.3,84.1,18.5,82.9,37.8h6.3c1.1-15.8,14-28.2,30-28.6c16.6,0.3,29.7,13.5,30.1,30C149.1,55.4,136.6,68.2,120.8,69.3z"/>
	<g>
		<g>
			<path fill="#D9D9D9" d="M119.3,67.9C103.6,67.6,91.1,55,90.6,39.3h-9.3c0.3,20.8,17.1,37.5,37.8,37.8v-9.2H119.3z"/>
			<path fill="#FFFFFF" d="M119.8,77.6h-0.5c-21.2-0.3-38-17.2-38.3-38.3v-0.5h10.3v0.5c0.3,15.4,12.7,27.8,28.1,28.1h0.5
				L119.8,77.6L119.8,77.6z M81.9,39.8C82.6,60,98.6,76,118.8,76.6v-8.3c-15.6-0.6-28-13-28.6-28.6L81.9,39.8L81.9,39.8z"/>
		</g>
	</g>
	<path fill="#575756" d="M110.9,33.4h-1.6v1.5h1.8v0.4h-2.3v-4h2.2v0.4h-1.7V33h1.6V33.4z"/>
	<path fill="#575756" d="M111.8,35.3v-4h0.6l1.3,2c0.3,0.5,0.5,0.9,0.7,1.3l0,0c0-0.5-0.1-1-0.1-1.7v-1.7h0.5v4h-0.5l-1.3-2.1
		c-0.3-0.5-0.6-0.9-0.8-1.3l0,0c0,0.5,0,1,0,1.7v1.7L111.8,35.3L111.8,35.3z"/>
	<path fill="#575756" d="M118.9,35.1c-0.2,0.1-0.7,0.2-1.2,0.2c-0.6,0-1.1-0.2-1.5-0.5c-0.3-0.3-0.6-0.9-0.6-1.5
		c0-1.2,0.8-2.1,2.2-2.1c0.5,0,0.8,0.1,1,0.2l-0.1,0.4c-0.2-0.1-0.5-0.2-0.9-0.2c-1,0-1.6,0.6-1.6,1.6s0.6,1.6,1.6,1.6
		c0.3,0,0.6,0,0.7-0.1v-1.2h-0.8v-0.4h1.3L118.9,35.1L118.9,35.1z"/>
	<path fill="#575756" d="M119.6,31.2h0.5v3.6h1.7v0.4h-2.2V31.2z"/>
	<path fill="#575756" d="M122.9,31.2v4h-0.5v-4H122.9z"/>
	<path fill="#575756" d="M123.9,34.6c0.2,0.1,0.6,0.3,0.9,0.3c0.5,0,0.8-0.3,0.8-0.7c0-0.4-0.2-0.6-0.8-0.8
		c-0.7-0.2-1.1-0.6-1.1-1.1c0-0.6,0.5-1.1,1.3-1.1c0.4,0,0.7,0.1,0.9,0.2l-0.1,0.4c-0.1-0.1-0.4-0.2-0.8-0.2c-0.6,0-0.8,0.3-0.8,0.6
		c0,0.4,0.2,0.6,0.8,0.8c0.7,0.3,1,0.6,1,1.2c0,0.6-0.5,1.2-1.4,1.2c-0.4,0-0.8-0.1-1-0.3L123.9,34.6z"/>
	<path fill="#575756" d="M127.4,31.2v1.7h2v-1.7h0.5v4h-0.5v-1.9h-2v1.9h-0.5v-4H127.4z"/>
	<path fill="#868686" d="M97.6,38.4v4h-0.5v-4H97.6z"/>
	<path fill="#868686" d="M98.6,40.4c0-0.3,0-0.5,0-0.8h0.5v0.5l0,0c0.1-0.3,0.5-0.5,1-0.5c0.4,0,1,0.2,1,1.2v1.7h-0.5v-1.7
		c0-0.5-0.2-0.9-0.7-0.9c-0.3,0-0.6,0.2-0.7,0.5c0,0.1,0,0.2,0,0.2v1.7h-0.6V40.4z"/>
	<path fill="#868686" d="M102.6,38.7v0.8h0.8V40h-0.8v1.6c0,0.4,0.1,0.6,0.4,0.6c0.1,0,0.2,0,0.3,0v0.4c-0.1,0-0.3,0.1-0.5,0.1
		c-0.2,0-0.4-0.1-0.6-0.2c-0.1-0.2-0.2-0.4-0.2-0.8V40h-0.4v-0.4h0.4v-0.7L102.6,38.7z"/>
	<path fill="#868686" d="M104.1,41.1c0,0.7,0.5,1,1,1c0.4,0,0.6-0.1,0.8-0.2l0.1,0.4c-0.2,0.1-0.5,0.2-1,0.2c-0.9,0-1.4-0.6-1.4-1.5
		c0-0.9,0.5-1.6,1.4-1.6c0.9,0,1.2,0.8,1.2,1.4c0,0.1,0,0.2,0,0.2L104.1,41.1L104.1,41.1z M105.8,40.8c0-0.3-0.1-0.9-0.7-0.9
		c-0.5,0-0.8,0.5-0.8,0.9H105.8z"/>
	<path fill="#868686" d="M106.9,40.5c0-0.3,0-0.6,0-0.9h0.5v0.6l0,0c0.1-0.4,0.4-0.6,0.8-0.6c0.1,0,0.1,0,0.1,0V40
		c-0.1,0-0.1,0-0.2,0c-0.4,0-0.6,0.3-0.7,0.7c0,0.1,0,0.2,0,0.2v1.5h-0.5V40.5L106.9,40.5z"/>
	<path fill="#868686" d="M108.9,40.4c0-0.3,0-0.5,0-0.8h0.5v0.5l0,0c0.2-0.3,0.4-0.5,0.9-0.5c0.4,0,0.7,0.2,0.8,0.6l0,0
		c0.1-0.2,0.2-0.3,0.3-0.4c0.2-0.1,0.4-0.2,0.6-0.2c0.4,0,1,0.3,1,1.3v1.7h-0.5V41c0-0.6-0.2-0.9-0.6-0.9c-0.3,0-0.5,0.2-0.6,0.5
		c0,0.1,0,0.2,0,0.3v1.8h-0.6V41c0-0.5-0.2-0.8-0.6-0.8c-0.3,0-0.6,0.3-0.7,0.5c0,0.1,0,0.2,0,0.3v1.8h-0.5V40.4L108.9,40.4z"/>
	<path fill="#868686" d="M114.1,41.1c0,0.7,0.5,1,1,1c0.4,0,0.6-0.1,0.8-0.2l0.1,0.4c-0.2,0.1-0.5,0.2-1,0.2c-0.9,0-1.4-0.6-1.4-1.5
		c0-0.9,0.5-1.6,1.4-1.6c0.9,0,1.2,0.8,1.2,1.4c0,0.1,0,0.2,0,0.2L114.1,41.1L114.1,41.1z M115.8,40.8c0-0.3-0.1-0.9-0.7-0.9
		c-0.5,0-0.8,0.5-0.8,0.9H115.8z"/>
	<path fill="#868686" d="M119.4,38.2v3.5c0,0.3,0,0.6,0,0.8h-0.5V42l0,0c-0.2,0.3-0.5,0.6-1,0.6c-0.7,0-1.2-0.6-1.2-1.5
		c0-1,0.6-1.6,1.3-1.6c0.4,0,0.7,0.2,0.9,0.4l0,0v-1.7H119.4z M118.9,40.8c0-0.1,0-0.2,0-0.2c-0.1-0.3-0.4-0.6-0.8-0.6
		c-0.5,0-0.9,0.5-0.9,1.1s0.3,1.1,0.9,1.1c0.4,0,0.7-0.2,0.8-0.6c0-0.1,0-0.1,0-0.2V40.8z"/>
	<path fill="#868686" d="M120.9,38.8c0,0.2-0.1,0.3-0.3,0.3s-0.3-0.1-0.3-0.3c0-0.2,0.1-0.3,0.3-0.3
		C120.8,38.4,120.9,38.6,120.9,38.8z M120.3,42.5v-2.9h0.5v2.9H120.3z"/>
	<path fill="#868686" d="M123.3,42.5v-0.4l0,0c-0.2,0.2-0.5,0.4-0.9,0.4c-0.6,0-0.9-0.4-0.9-0.8c0-0.7,0.6-1.1,1.7-1.1v-0.1
		c0-0.2-0.1-0.7-0.7-0.7c-0.3,0-0.6,0.1-0.8,0.2l-0.1-0.3c0.2-0.2,0.6-0.3,1-0.3c0.9,0,1.1,0.6,1.1,1.2v1.1c0,0.3,0,0.5,0,0.7h-0.4
		V42.5z M123.2,41c-0.6,0-1.2,0.1-1.2,0.7c0,0.3,0.2,0.5,0.5,0.5c0.4,0,0.6-0.2,0.7-0.5c0-0.1,0-0.1,0-0.2V41z"/>
	<path fill="#868686" d="M125.2,38.7v0.8h0.8V40h-0.8v1.6c0,0.4,0.1,0.6,0.4,0.6c0.1,0,0.2,0,0.3,0v0.4c-0.1,0-0.3,0.1-0.5,0.1
		c-0.2,0-0.4-0.1-0.6-0.2c-0.2-0.2-0.2-0.4-0.2-0.8V40h-0.4v-0.4h0.4v-0.7L125.2,38.7z"/>
	<path fill="#868686" d="M126.8,41.1c0,0.7,0.5,1,1,1c0.4,0,0.6-0.1,0.8-0.2l0.1,0.4c-0.2,0.1-0.5,0.2-1,0.2c-0.9,0-1.4-0.6-1.4-1.5
		c0-0.9,0.5-1.6,1.4-1.6c0.9,0,1.2,0.8,1.2,1.4c0,0.1,0,0.2,0,0.2L126.8,41.1L126.8,41.1z M128.4,40.8c0-0.3-0.1-0.9-0.7-0.9
		c-0.5,0-0.8,0.5-0.8,0.9H128.4z"/>
	<path fill="#868686" d="M130.8,38.2h0.5v4.3h-0.5V38.2z"/>
	<path fill="#868686" d="M132.4,41.1c0,0.7,0.5,1,1,1c0.4,0,0.6-0.1,0.8-0.2l0.1,0.4c-0.2,0.1-0.5,0.2-1,0.2c-0.9,0-1.4-0.6-1.4-1.5
		c0-0.9,0.5-1.6,1.4-1.6s1.2,0.8,1.2,1.4c0,0.1,0,0.2,0,0.2L132.4,41.1L132.4,41.1z M134.1,40.8c0-0.3-0.1-0.9-0.7-0.9
		c-0.5,0-0.8,0.5-0.8,0.9H134.1z"/>
	<path fill="#868686" d="M135.4,39.6l0.6,1.6c0.1,0.3,0.2,0.5,0.2,0.7l0,0c0.1-0.2,0.1-0.5,0.2-0.7l0.6-1.6h0.6l-1.1,2.9h-0.5
		l-1.1-2.9H135.4z"/>
	<path fill="#868686" d="M138.3,41.1c0,0.7,0.5,1,1,1c0.4,0,0.6-0.1,0.8-0.2l0.1,0.4c-0.2,0.1-0.5,0.2-1,0.2c-0.9,0-1.4-0.6-1.4-1.5
		c0-0.9,0.5-1.6,1.4-1.6c0.9,0,1.2,0.8,1.2,1.4c0,0.1,0,0.2,0,0.2L138.3,41.1L138.3,41.1z M139.9,40.8c0-0.3-0.1-0.9-0.7-0.9
		c-0.5,0-0.8,0.5-0.8,0.9H139.9z"/>
	<path fill="#868686" d="M141.1,38.2h0.5v4.3h-0.5V38.2z"/>
</g>
<g>
	<path fill="#D9D9D9" d="M237.2,39.3c-0.3-20.7-17.1-37.5-37.8-37.8l0,0c-10.4,0.2-19.7,4.4-26.6,11.2c-6.8,6.8-11.1,16.2-11.3,26.5
		l0,0l0,0c0.2,10.4,4.4,19.7,11.3,26.5c6.8,6.8,16.2,11.1,26.6,11.2v-9.3c-15.6-0.3-28.2-12.9-28.6-28.5
		c0.3-15.6,12.9-28.2,28.6-28.6c15.6,0.3,28.2,12.9,28.6,28.6L237.2,39.3L237.2,39.3L237.2,39.3z"/>
	<path fill="#FFFFFF" d="M200.8,78.7h-1.5c-10.4-0.2-20.2-4.3-27.6-11.7c-7.4-7.4-11.5-17.2-11.7-27.6c0.2-10.5,4.3-20.3,11.7-27.7
		c7.4-7.4,17.2-11.5,27.6-11.7c21.2,0.3,38.2,16.8,39.3,37.8h0.1v2.1l-0.8,0.9h-11.4v-1.5c-0.3-14.9-12.2-26.8-27.1-27.1
		c-14.8,0.3-26.7,12.2-27,27.1c0.3,14.8,12.2,26.7,27.1,27h1.5v12.4H200.8z M199.3,3c-9.6,0.2-18.7,4-25.5,10.8
		c-6.8,6.8-10.7,15.9-10.8,25.5c0.2,9.6,4,18.7,10.8,25.5c6.5,6.5,14.9,10.2,24,10.8v-6.3c-15.8-1.1-28.2-14-28.6-30
		c0.3-16.6,13.5-29.7,30-30.1c16.1,0.3,29,12.7,30,28.6h6.3C234.5,18.5,218.9,3.3,199.3,3z"/>
	<path fill="#575756" d="M237.2,39.3L237.2,39.3c-0.2,10.4-4.5,19.7-11.3,26.5c-6.8,6.8-16.2,11.1-26.6,11.2l0,0v-9.3
		c15.6-0.3,28.2-12.9,28.6-28.5L237.2,39.3L237.2,39.3z"/>
	<path fill="#FFFFFF" d="M199.4,78.6h-1.5V66.4h1.5c14.9-0.3,26.8-12.2,27.1-27.1v-1.5h12.2v3h-0.1C238.1,50.7,234,59.9,227,67
		C219.6,74.3,209.8,78.5,199.4,78.6L199.4,78.6z M200.8,69.3v6.3c9.1-0.5,17.5-4.3,24-10.8s10.3-14.9,10.8-24h-6.3
		C228.3,56.1,216.2,68.3,200.8,69.3z"/>
	<path fill="#575756" d="M189.5,31.2h0.5v1.9l0,0c0.1-0.2,0.2-0.3,0.3-0.4l1.2-1.5h0.6l-1.5,1.7l1.6,2.3h-0.6l-1.3-2l-0.4,0.4v1.5
		h-0.5v-3.9H189.5z"/>
	<path fill="#575756" d="M196.1,33.2c0,1.4-0.8,2.1-1.9,2.1s-1.8-0.8-1.8-2.1c0-1.3,0.8-2.1,1.9-2.1C195.4,31.2,196.1,32,196.1,33.2
		z M193,33.3c0,0.9,0.5,1.6,1.3,1.6c0.8,0,1.3-0.8,1.3-1.7c0-0.8-0.4-1.6-1.3-1.6C193.4,31.6,193,32.4,193,33.3z"/>
	<path fill="#575756" d="M196.8,31.3c0.3-0.1,0.6-0.1,1-0.1c0.6,0,0.9,0.1,1.2,0.3c0.2,0.2,0.3,0.5,0.3,0.8c0,0.5-0.3,0.9-0.8,1l0,0
		c0.3,0.1,0.5,0.4,0.6,0.8c0.1,0.6,0.2,1,0.3,1.1h-0.5c-0.1-0.1-0.2-0.5-0.3-1c-0.1-0.6-0.3-0.8-0.8-0.8h-0.5v1.8h-0.5V31.3z
		 M197.3,33.1h0.5c0.6,0,0.9-0.3,0.9-0.8s-0.4-0.8-0.9-0.8c-0.3,0-0.4,0-0.5,0V33.1z"/>
	<path fill="#575756" d="M202.1,33.4h-1.6v1.5h1.8v0.4H200v-4h2.2v0.4h-1.7V33h1.6V33.4z"/>
	<path fill="#575756" d="M203.6,34l-0.4,1.3h-0.5l1.4-4h0.6l1.4,4h-0.6l-0.4-1.3H203.6z M205,33.6l-0.4-1.2
		c-0.1-0.3-0.2-0.5-0.2-0.7l0,0c-0.1,0.2-0.1,0.5-0.2,0.7l-0.4,1.2H205z"/>
	<path fill="#575756" d="M206.6,35.3v-4h0.6l1.3,2c0.3,0.5,0.5,0.9,0.7,1.3l0,0c0-0.5-0.1-1-0.1-1.7v-1.7h0.5v4h-0.5l-1.3-2.1
		c-0.3-0.5-0.6-0.9-0.8-1.3l0,0c0,0.5,0,1,0,1.7v1.7L206.6,35.3L206.6,35.3z"/>
	<path fill="#868686" d="M187.3,38.5c0.2,0,0.6-0.1,1-0.1c0.5,0,0.9,0.1,1.1,0.3c0.2,0.2,0.3,0.4,0.3,0.7c0,0.4-0.3,0.7-0.7,0.9l0,0
		c0.4,0.1,0.8,0.4,0.8,1c0,0.3-0.1,0.6-0.3,0.8c-0.3,0.3-0.7,0.4-1.4,0.4c-0.4,0-0.6,0-0.8,0V38.5L187.3,38.5z M187.8,40.2h0.5
		c0.6,0,0.9-0.3,0.9-0.7c0-0.5-0.4-0.7-0.9-0.7c-0.2,0-0.4,0-0.5,0V40.2z M187.8,42.1c0.1,0,0.3,0,0.4,0c0.5,0,1-0.2,1-0.8
		c0-0.6-0.5-0.8-1-0.8h-0.4V42.1z"/>
	<path fill="#868686" d="M192.1,42.5v-0.4l0,0c-0.2,0.2-0.5,0.4-0.9,0.4c-0.6,0-0.9-0.4-0.9-0.8c0-0.7,0.6-1.1,1.7-1.1v-0.1
		c0-0.2-0.1-0.7-0.7-0.7c-0.3,0-0.6,0.1-0.8,0.2l-0.1-0.3c0.2-0.2,0.6-0.3,1-0.3c0.9,0,1.1,0.6,1.1,1.2v1.1c0,0.3,0,0.5,0,0.7h-0.4
		V42.5z M192,41c-0.6,0-1.2,0.1-1.2,0.7c0,0.3,0.2,0.5,0.5,0.5c0.4,0,0.6-0.2,0.7-0.5c0-0.1,0-0.1,0-0.2V41z"/>
	<path fill="#868686" d="M193.3,41.9c0.2,0.1,0.4,0.2,0.7,0.2c0.4,0,0.6-0.2,0.6-0.4c0-0.3-0.2-0.4-0.5-0.5
		c-0.5-0.2-0.8-0.5-0.8-0.8c0-0.5,0.4-0.9,1-0.9c0.3,0,0.6,0.1,0.7,0.2l-0.1,0.4c-0.1-0.1-0.3-0.2-0.6-0.2c-0.3,0-0.5,0.2-0.5,0.4
		c0,0.2,0.2,0.3,0.6,0.5c0.5,0.2,0.8,0.4,0.8,0.9s-0.4,0.9-1.1,0.9c-0.3,0-0.6-0.1-0.8-0.2V41.9z"/>
	<path fill="#868686" d="M196.4,38.8c0,0.2-0.1,0.3-0.3,0.3c-0.2,0-0.3-0.1-0.3-0.3c0-0.2,0.1-0.3,0.3-0.3
		C196.2,38.4,196.4,38.6,196.4,38.8z M195.8,42.5v-2.9h0.5v2.9H195.8z"/>
	<path fill="#868686" d="M199.3,42.4c-0.1,0.1-0.4,0.2-0.8,0.2c-0.9,0-1.4-0.6-1.4-1.5s0.6-1.5,1.6-1.5c0.3,0,0.6,0.1,0.7,0.1
		l-0.1,0.4c-0.1-0.1-0.3-0.1-0.6-0.1c-0.7,0-1,0.5-1,1.1c0,0.7,0.4,1.1,1,1.1c0.3,0,0.5-0.1,0.6-0.1V42.4z"/>
	<path fill="#868686" d="M201.1,38.2h0.5v4.3h-0.5V38.2z"/>
	<path fill="#868686" d="M202.9,41.1c0,0.7,0.5,1,1,1c0.4,0,0.6-0.1,0.8-0.2l0.1,0.4c-0.2,0.1-0.5,0.2-1,0.2c-0.9,0-1.4-0.6-1.4-1.5
		c0-0.9,0.5-1.6,1.4-1.6c0.9,0,1.2,0.8,1.2,1.4c0,0.1,0,0.2,0,0.2L202.9,41.1L202.9,41.1z M204.4,40.8c0-0.3-0.1-0.9-0.7-0.9
		c-0.5,0-0.8,0.5-0.8,0.9H204.4z"/>
	<path fill="#868686" d="M205.8,39.6l0.6,1.6c0.1,0.3,0.2,0.5,0.2,0.7l0,0c0.1-0.2,0.1-0.5,0.2-0.7l0.6-1.6h0.6l-1.1,2.9h-0.5
		l-1.1-2.9H205.8z"/>
	<path fill="#868686" d="M208.7,41.1c0,0.7,0.5,1,1,1c0.4,0,0.6-0.1,0.8-0.2l0.1,0.4c-0.2,0.1-0.5,0.2-1,0.2c-0.9,0-1.4-0.6-1.4-1.5
		c0-0.9,0.5-1.6,1.4-1.6s1.2,0.8,1.2,1.4c0,0.1,0,0.2,0,0.2L208.7,41.1L208.7,41.1z M210.2,40.8c0-0.3-0.1-0.9-0.7-0.9
		c-0.5,0-0.8,0.5-0.8,0.9H210.2z"/>
	<path fill="#868686" d="M211.4,38.2h0.5v4.3h-0.5V38.2z"/>
</g>
</svg>
