<?xml version="1.0" encoding="utf-8"?>
<!-- Generator: Adobe Illustrator 16.0.4, SVG Export Plug-In . SVG Version: 6.00 Build 0)  -->
<!DOCTYPE svg PUBLIC "-//W3C//DTD SVG 1.1//EN" "http://www.w3.org/Graphics/SVG/1.1/DTD/svg11.dtd">
<svg version="1.1" id="Layer_1" xmlns="http://www.w3.org/2000/svg" xmlns:xlink="http://www.w3.org/1999/xlink" x="0px" y="0px"
	 width="203px" height="74.8px" viewBox="0 0 203 74.8" enable-background="new 0 0 203 74.8" xml:space="preserve">
<path fill="#1D1D1B" d="M201.7,38.3c-1.7-1.7-4.4-0.8-7.1,0.5c-0.3-0.4-0.7-0.7-1.2-1c-1.7-0.9-4.1-0.4-5.5,0.5
	c-1.1,0.7-1.8,1.7-2,2.7c0,0,0,0,0,0c-2.1-1.4-4.5,0.4-6.4,1.7c-0.8,0.6-2.2,1.6-2.6,1.5c0-0.1,0-0.3,0-0.5c0-0.2,0-0.6-0.1-0.9
	c1.4-2.8,2.9-6.1,4.4-9.5c1.2-2.7,2.4-5.5,3.6-8.1c11.4-1.8,17.5-3.4,18.2-7c0.6-2.8-2.6-5.1-5.1-6.6c-1.8-1.1-3.6-1.3-5.4-0.7
	c-3.7,1.2-6.8,5.8-9.7,11.6c-2.4,0.4-4.9,0.7-7.1,1c-8.7,1.2-18,2.6-25.8,4.6c0.8-1.2,1.6-2.5,2.4-3.7c1.3-0.8,2.7-1.6,4-2.5
	c13.5-8.6,13.2-10.5,13.1-11.7c-0.1-0.5-0.4-1.7-2.2-1.9c-5.7-0.8-11.5,5.8-17,13.9c-4.4,2.7-8.4,5-10,5.6c-1.9,0.9-4.1,2-6.3,3.3
	c-5.4,3-11.4,6.3-15.6,5.9c0,0,0,0,0.1,0c1.7-1,2.4-2.8,1.7-4.8c-0.3-1-1.2-1.7-2.3-1.8c-2-0.2-4.6,1.7-5.5,3.5c0,0,0,0.1-0.1,0.1
	c-1.3-0.6-2.7-1.6-3.9-3c-2.6-2.8-6.4-0.3-9.5,1.7c-1.6,1-3.8,2.4-4.6,2.3c0.1-0.1,0.2-0.2,0.2-0.3c0.6-0.7,1.3-1.7,1.1-2.9
	c-0.1-0.7-0.5-1.2-1.1-1.6c-2.2-1.3-7.5,0.5-17.4,4.1C68.6,37.2,55.4,42,53,39.8c-0.1-0.1-0.1-0.1-0.2-0.2c4.9-3.7,9.5-7.2,14-9.9
	c0.6-0.4,1.3-0.7,2-1.1c8-4.5,20.1-11.4,18.6-22c-0.5-3.8-2.4-5.4-3.9-6C80.8-0.6,77,0.1,73.2,2.5c-8.7,5.5-17.5,15.2-21.9,24
	c-2.5,5.1-3.3,9.3-2.3,12.4c-11.6,8.9-23.7,17.7-36.8,16.3c-3.6-0.4-8.2-1.7-9-5.8c-1-4.7,3.3-11.3,9.4-14.7c0.7-0.4,1-1.3,0.6-2
	c-0.4-0.7-1.3-1-2-0.6C3.8,36.1-1,44,0.2,50c0.5,2.7,2.8,7.3,11.7,8.2c14.1,1.4,27.1-7.9,38.6-16.7c0.2,0.2,0.4,0.4,0.6,0.6
	c3.5,3.1,12.8,0.1,26.6-4.8c5-1.8,11.6-4.2,14.2-4.3c0,0-0.1,0.1-0.1,0.1c-0.6,0.7-1.6,2.1-0.7,3.5c0.5,0.8,1.3,1.4,2.1,1.6
	c2.1,0.5,4.4-1.1,6.9-2.7c2.2-1.4,4.8-3.1,5.7-2.2c2.1,2.3,4.4,3.7,6.6,4.3c5.4,6.1,15,0.7,22.7-3.6c2.2-1.2,4.3-2.4,6.1-3.2
	c0.7-0.3,2.6-1.3,5.1-2.8c-0.3,0.5-0.6,1-0.9,1.5c-5.6,1.8-10,4.1-12.2,7.2c-1.4,2-1.9,4.2-1.5,6.7c0.2,0.8,0.6,3.4,2.7,3.8
	c3,0.6,6-4,12-13.6c0.3-0.5,0.6-1,1-1.6c8.2-2.5,19.1-4,28.6-5.4c1.8-0.3,3.5-0.5,5.1-0.7c-1,2.1-1.9,4.2-2.8,6.3
	c-1.3,2.9-2.6,6-3.9,8.6c-3.1-0.8-7.8,1.4-9.8,3.7c-2.2,2.5-0.9,4.4-0.5,4.9c1.5,1.7,3.1,2.4,4.8,2.1c2.1-0.3,4-2.2,5.8-5
	c0.5,0.5,1.1,0.7,1.5,0.8c1.7,0.3,3.3-0.8,5-2c0.6-0.4,1.8-1.3,2.6-1.6c-0.1,0.7-0.2,1.6,0.5,2.4c1.1,1.2,2.8,1.4,5,0.6
	c2-0.7,4.8-2.5,5.7-4.7c1.6-0.8,4.2-2,4.6-1.6c1,1,1.3,4.5-8.2,16.3c-0.3,0.4-0.6,0.7-0.8,1c-2.6,3.4-9.7,12.4-14.3,13.7
	c-0.9,0.2-1.4,0.3-1.8,0.4c1.1-2.1,5.6-6.6,7.7-8.7c1.8-1.8,2.7-2.8,3.2-3.4c0.5-0.7,0.3-1.6-0.4-2.1c-0.7-0.5-1.6-0.3-2.1,0.4
	c-0.3,0.4-1.6,1.7-2.8,2.9c-7.1,7-9.8,10.4-8.5,12.6c0.5,0.9,1.5,1.2,2.6,1.2c1.1,0,2.3-0.3,3-0.5c5-1.4,10.8-8.3,15.9-14.8
	c0.2-0.2,0.4-0.6,0.7-0.9C199.9,50.8,205.7,42.3,201.7,38.3z M193.3,13.9c0.3-0.1,0.7-0.2,1-0.2c0.6,0,1.3,0.2,1.9,0.6
	c3.9,2.3,3.7,3.4,3.7,3.4c-0.3,1.7-6.5,3.1-13.6,4.3C188.6,17.9,190.9,14.6,193.3,13.9z M165.5,11.4c-1.4,1.5-4.7,3.9-8.5,6.4
	C160,14.3,163,11.7,165.5,11.4z M54,27.8C58.1,19.4,66.5,10.3,74.8,5c2.1-1.3,4.1-2,5.8-2c0.7,0,1.2,0.1,1.7,0.3
	c1.2,0.5,1.9,1.8,2.2,3.7c1.2,8.6-9.8,14.9-17.1,19c-0.7,0.4-1.4,0.8-2,1.1c-4.5,2.6-9,6-13.7,9.6C51.3,33.9,52.8,30.2,54,27.8z
	 M116.5,34.6c-0.4,0.2-0.9,0.3-1.6,0.3c0.1-0.2,0.3-0.4,0.6-0.6c0.6-0.5,1.1-0.7,1.4-0.8C117.1,34.2,116.8,34.4,116.5,34.6z
	 M135,44.2c-0.1-0.2-0.3-0.6-0.4-1.3c-0.3-1.6,0-3,1-4.4c1.4-1.9,3.9-3.5,7.2-4.9C139.9,38.2,136.5,43.5,135,44.2z M168.3,48.5
	c-0.2,0-0.9,0.2-2.1-1.2c0-0.2,0.5-1.2,2.4-2.3c1.5-0.9,3.1-1.3,4.2-1.3C171.2,46.4,169.7,48.3,168.3,48.5z M188.8,41.5
	c0.1-0.2,0.3-0.4,0.7-0.7c0.6-0.4,1.3-0.5,1.8-0.5c0.1,0,0.2,0,0.3,0C190.5,40.8,189.4,41.4,188.8,41.5z"/>
</svg>
