<?xml version="1.0" encoding="utf-8"?>
<!-- Generator: Adobe Illustrator 16.0.4, SVG Export Plug-In . SVG Version: 6.00 Build 0)  -->
<!DOCTYPE svg PUBLIC "-//W3C//DTD SVG 1.1//EN" "http://www.w3.org/Graphics/SVG/1.1/DTD/svg11.dtd">
<svg version="1.1" id="Layer_1" xmlns="http://www.w3.org/2000/svg" xmlns:xlink="http://www.w3.org/1999/xlink" x="0px" y="0px"
	 width="100px" height="100px" viewBox="0 0 100 100" enable-background="new 0 0 100 100" xml:space="preserve">
<path fill="#333333" d="M98,29c0,0-0.9-7.2-3.9-10.4c-3.7-4.2-7.9-4.2-9.8-4.5C70.6,13,50,13,50,13h0c0,0-20.6,0-34.3,1.1
	c-1.9,0.2-6.1,0.3-9.8,4.4C2.9,21.7,1.9,29,1.9,29S1,37.4,1,45.9v7.9c0,8.5,0.9,16.9,0.9,16.9S2.9,78,5.8,81.2
	c3.7,4.2,8.6,4,10.8,4.5c7.8,0.8,33.4,1.1,33.4,1.1s20.6,0,34.3-1.1c1.9-0.2,6.1-0.3,9.8-4.4C97.1,78,98,70.8,98,70.8s1-8.5,1-16.9
	v-7.9C99,37.4,98,29,98,29z M38,68.3V31.5l30.7,18.4L38,68.3z"/>
</svg>
