<?xml version="1.0" encoding="utf-8"?>
<!-- Generator: Adobe Illustrator 16.0.4, SVG Export Plug-In . SVG Version: 6.00 Build 0)  -->
<!DOCTYPE svg PUBLIC "-//W3C//DTD SVG 1.1//EN" "http://www.w3.org/Graphics/SVG/1.1/DTD/svg11.dtd">
<svg version="1.1" id="Layer_1" xmlns="http://www.w3.org/2000/svg" xmlns:xlink="http://www.w3.org/1999/xlink" x="0px" y="0px"
	 width="100px" height="100px" viewBox="0 0 100 100" enable-background="new 0 0 100 100" xml:space="preserve">
<path fill="#333333" d="M99.1,19.6c-3.6,1.6-7.5,2.7-11.6,3.2c4.2-2.5,7.3-6.4,8.9-11.1c-3.9,2.3-8.2,4-12.8,4.9
	c-3.7-3.9-8.9-6.4-14.7-6.4c-11.1,0-20.1,9-20.1,20.1c0,1.6,0.2,3.1,0.5,4.6C32.5,34,17.7,26,7.8,13.8C6,16.8,5,20.2,5,23.9
	c0,7,3.6,13.1,9,16.8c-3.3-0.1-6.4-1-9.1-2.5c0,0.1,0,0.2,0,0.3c0,9.8,6.9,17.9,16.2,19.7c-1.7,0.5-3.5,0.7-5.3,0.7
	c-1.3,0-2.6-0.1-3.8-0.4c2.6,8,10,13.8,18.8,14c-6.9,5.4-15.6,8.6-25,8.6c-1.6,0-3.2-0.1-4.8-0.3c8.9,5.7,19.5,9,30.9,9
	c37,0,57.3-30.7,57.3-57.3c0-0.9,0-1.7-0.1-2.6C93,27.1,96.4,23.6,99.1,19.6z"/>
</svg>
