<?xml version="1.0" encoding="utf-8"?>
<!-- Generator: Adobe Illustrator 16.0.4, SVG Export Plug-In . SVG Version: 6.00 Build 0)  -->
<!DOCTYPE svg PUBLIC "-//W3C//DTD SVG 1.1//EN" "http://www.w3.org/Graphics/SVG/1.1/DTD/svg11.dtd">
<svg version="1.1" id="Layer_1" xmlns="http://www.w3.org/2000/svg" xmlns:xlink="http://www.w3.org/1999/xlink" x="0px" y="0px"
	 width="100px" height="100px" viewBox="0 0 100 100" enable-background="new 0 0 100 100" xml:space="preserve">
<path fill="#333333" d="M79.9,10.1H20.1c-5.6,0-10,4.3-10,10v59.8c0,5.6,4.3,10,10,10h59.8c5.6,0,10-4.3,10-10V20.1
	C89.9,14.5,85.5,10.1,79.9,10.1z M50.1,34.3c8.8,0,16,6.9,16,15.5c0,8.6-7.2,15.5-16,15.5c-8.8,0-16-7-16-15.5
	C34.1,41.3,41.2,34.3,50.1,34.3z M79.9,77.4c0,1.7-0.7,2.5-2.5,2.5H22.6c-1.7,0-2.5-0.7-2.5-2.5V42.5l6.2,1.4c-0.7,2.2-1,4.5-1,6.8
	c0,13.3,11.1,24,24.8,24c13.7,0,24.8-10.8,24.8-24c0-2.4-0.4-4.7-1-6.8l6.1-1.4V77.4z M79.9,32.6c0,1.4-1.1,2.5-2.5,2.5h-10
	c-1.4,0-2.5-1.1-2.5-2.5v-10c0-1.4,1.1-2.5,2.5-2.5h10c1.4,0,2.5,1.1,2.5,2.5V32.6z"/>
</svg>
