<?xml version="1.0" encoding="utf-8"?>
<!-- Generator: Adobe Illustrator 16.0.4, SVG Export Plug-In . SVG Version: 6.00 Build 0)  -->
<!DOCTYPE svg PUBLIC "-//W3C//DTD SVG 1.1//EN" "http://www.w3.org/Graphics/SVG/1.1/DTD/svg11.dtd">
<svg version="1.1" id="Layer_1" xmlns="http://www.w3.org/2000/svg" xmlns:xlink="http://www.w3.org/1999/xlink" x="0px" y="0px"
	 width="181.6px" height="110px" viewBox="0 0 181.6 110" enable-background="new 0 0 181.6 110" xml:space="preserve">
<g>
	<path fill-rule="evenodd" clip-rule="evenodd" fill="#FFFFFF" d="M57.8,33.1c0,5.8,1.5,11.3,4.2,16C56.3,59.2,45.6,66,33.3,66
		C15.2,66,0.5,51.3,0.5,33.1C0.5,15,15.2,0.3,33.3,0.3c12.3,0,23,6.8,28.7,16.8C59.3,21.8,57.8,27.3,57.8,33.1z"/>
	<path fill="#575756" d="M33.3,66.1c-18.2,0-33-14.8-33-33c0-18.2,14.8-33,33-33c11.9,0,22.9,6.5,28.8,16.9l0,0.1l0,0.1
		c-2.7,4.8-4.2,10.4-4.2,16c0,5.6,1.4,11.1,4.2,16l0,0.1l0,0.1C56.2,59.6,45.2,66.1,33.3,66.1z M33.3,0.4c-18,0-32.7,14.7-32.7,32.7
		c0,18,14.7,32.7,32.7,32.7c11.8,0,22.7-6.4,28.5-16.7c-2.7-4.9-4.2-10.4-4.2-16c0-5.6,1.4-11.2,4.2-16C56,6.8,45.1,0.4,33.3,0.4z"
		/>
</g>
<g>
	<path fill-rule="evenodd" clip-rule="evenodd" fill="#FFFFFF" d="M66.1,33.1c0,5.8-1.5,11.3-4.2,16c-2.7-4.7-4.2-10.2-4.2-16
		c0-5.8,1.5-11.3,4.2-16C64.6,21.8,66.1,27.3,66.1,33.1z"/>
	<path fill="#575756" d="M62,49.4l-0.1-0.2c-2.7-4.9-4.2-10.4-4.2-16.1c0-5.6,1.4-11.2,4.2-16.1l0.1-0.2l0.1,0.2
		c2.7,4.9,4.2,10.4,4.2,16.1c0,5.6-1.4,11.2-4.2,16.1L62,49.4z M62,17.4c-2.6,4.8-4,10.2-4,15.8c0,5.5,1.4,11,4,15.8
		c2.6-4.8,4-10.2,4-15.8C66,27.6,64.6,22.2,62,17.4z"/>
</g>
<g>
	<path fill-rule="evenodd" clip-rule="evenodd" fill="#FFFFFF" d="M115.5,33.1c0,5.7,1.5,11,4,15.7C113.9,59,103.1,66,90.6,66
		c-12.3,0-23-6.8-28.7-16.8c2.7-4.7,4.2-10.2,4.2-16c0-5.8-1.5-11.3-4.2-16c5.6-10,16.4-16.8,28.7-16.8c12.4,0,23.3,6.9,28.8,17.1
		C116.9,22.1,115.5,27.4,115.5,33.1z"/>
	<path fill="#575756" d="M90.6,66.1c-11.9,0-22.9-6.5-28.8-16.9l0-0.1l0-0.1c2.7-4.8,4.2-10.4,4.2-16c0-5.6-1.4-11.1-4.2-16l0-0.1
		l0-0.1C67.7,6.6,78.7,0.2,90.6,0.2c12.1,0,23.2,6.6,28.9,17.2l0,0.1l0,0.1c-2.6,4.8-4,10.2-4,15.6c0,5.5,1.4,10.9,4,15.6l0,0.1
		l0,0.1C113.8,59.5,102.7,66.1,90.6,66.1z M62.1,49.2c5.8,10.3,16.7,16.7,28.5,16.7c12,0,22.9-6.5,28.7-17c-2.6-4.8-4-10.2-4-15.7
		c0-5.5,1.4-10.9,4-15.7c-5.7-10.5-16.7-17-28.7-17c-11.8,0-22.7,6.4-28.5,16.7c2.7,4.9,4.2,10.4,4.2,16
		C66.3,38.8,64.8,44.3,62.1,49.2z"/>
</g>
<g>
	<path fill-rule="evenodd" clip-rule="evenodd" fill="#FFFFFF" d="M123.5,33.1c0,5.7-1.5,11-4,15.7c-2.5-4.7-4-10-4-15.7
		c0-5.7,1.5-11,4-15.7C122,22.1,123.5,27.4,123.5,33.1z"/>
	<path fill="#575756" d="M119.5,49.1l-0.1-0.2c-2.6-4.8-4-10.3-4-15.8c0-5.5,1.4-11,4-15.8l0.1-0.2l0.1,0.2c2.6,4.8,4,10.3,4,15.8
		c0,5.5-1.4,11-4,15.8L119.5,49.1z M119.5,17.7c-2.5,4.7-3.9,10.1-3.9,15.4c0,5.4,1.3,10.7,3.9,15.4c2.5-4.7,3.9-10,3.9-15.4
		C123.3,27.7,122,22.4,119.5,17.7z"/>
</g>
<g>
	<path fill-rule="evenodd" clip-rule="evenodd" fill="#FFFFFF" d="M181.1,33.1c0,18.1-14.7,32.8-32.8,32.8
		c-12.4,0-23.3-6.9-28.8-17.1c2.5-4.7,4-10,4-15.7c0-5.7-1.5-11-4-15.7C125,7.2,135.8,0.3,148.3,0.3C166.4,0.3,181.1,15,181.1,33.1z
		"/>
	<path fill="#575756" d="M148.3,66.1c-12.1,0-23.2-6.6-28.9-17.2l0-0.1l0-0.1c2.6-4.8,4-10.2,4-15.6c0-5.5-1.4-10.9-4-15.6l0-0.1
		l0-0.1c5.8-10.6,16.9-17.2,28.9-17.2c18.2,0,33,14.8,33,33C181.3,51.3,166.5,66.1,148.3,66.1z M119.6,48.8
		c5.7,10.5,16.7,17,28.7,17c18,0,32.7-14.7,32.7-32.7c0-18-14.7-32.7-32.7-32.7c-12,0-22.9,6.5-28.7,17c2.6,4.8,4,10.2,4,15.7
		C123.6,38.6,122.2,44.1,119.6,48.8z"/>
</g>
<g>
	<g>
		<path fill-rule="evenodd" clip-rule="evenodd" fill="#575756" d="M34.1,17.4c-4.6,0-7,3.6-7,6.9c0,3.7,3.4,6,3.4,12H34
			c0,0,3.3,0,3.3,0c0.1-6.1,3.5-8.4,3.5-12C40.8,21.2,38.6,17.4,34.1,17.4z M31.4,40.6c0,0,0,0.4,0,0.8s0.4,0.8,0.8,0.8h3.4
			c0.5,0,0.8-0.4,0.8-0.8s-0.1-0.8-0.1-0.8H31.4z M36.9,37.2H31c-0.2,0-0.4,0.2-0.4,0.4c0,0.2,0.2,0.4,0.4,0.4h5.9
			c0.2,0,0.4-0.2,0.4-0.4C37.3,37.4,37.1,37.2,36.9,37.2z M36.9,38.9H31c-0.2,0-0.4,0.2-0.4,0.4c0,0.2,0.2,0.4,0.4,0.4h5.9
			c0.2,0,0.4-0.2,0.4-0.4C37.3,39.1,37.1,38.9,36.9,38.9z"/>
	</g>
</g>
<g>
	<g>
		<path fill-rule="evenodd" clip-rule="evenodd" fill="#575756" d="M80.5,40.6h17.1V28H80.5V40.6z M83.2,27.1h15.3v10.8h1.8V25.3
			H83.2L83.2,27.1z M85.9,22.6l-0.1,1.8h15.3v10.8h1.8V22.6H85.9z"/>
	</g>
</g>
<circle fill-rule="evenodd" clip-rule="evenodd" fill="#575756" cx="34" cy="51.8" r="1.4"/>
<rect x="33.8" y="52.1" fill="#575756" width="0.2" height="48.5"/>
<g>
	<path fill="#575756" d="M22.2,108.7v-4h0.6l1.3,2c0.3,0.5,0.5,0.9,0.7,1.3l0,0c0-0.5-0.1-1-0.1-1.7v-1.7h0.5v4h-0.5l-1.3-2.1
		c-0.3-0.4-0.6-0.9-0.8-1.3l0,0c0,0.5,0,1,0,1.7v1.7H22.2z"/>
	<path fill="#575756" d="M26.4,107.4c0,0.7,0.5,1,1,1c0.4,0,0.6-0.1,0.8-0.1l0.1,0.4c-0.2,0.1-0.5,0.2-1,0.2c-0.9,0-1.4-0.6-1.4-1.5
		s0.5-1.6,1.4-1.6c0.9,0,1.2,0.8,1.2,1.4c0,0.1,0,0.2,0,0.2H26.4z M27.9,107c0-0.3-0.1-0.9-0.7-0.9c-0.5,0-0.8,0.5-0.8,0.9H27.9z"/>
	<path fill="#575756" d="M29.3,105.8l0.4,1.5c0.1,0.3,0.2,0.6,0.2,0.9h0c0.1-0.3,0.2-0.6,0.3-0.9l0.5-1.5h0.4l0.5,1.5
		c0.1,0.3,0.2,0.7,0.3,0.9h0c0-0.3,0.1-0.6,0.2-0.9l0.4-1.5H33l-0.9,2.9h-0.5l-0.4-1.4c-0.1-0.3-0.2-0.6-0.3-1h0
		c-0.1,0.3-0.2,0.6-0.3,1l-0.5,1.4h-0.5l-0.9-2.9H29.3z"/>
	<path fill="#575756" d="M35.3,104.7v4h-0.5v-4H35.3z"/>
	<path fill="#575756" d="M38.7,104.5v3.5c0,0.3,0,0.6,0,0.7h-0.5l0-0.5h0c-0.2,0.3-0.5,0.6-1,0.6c-0.7,0-1.2-0.6-1.2-1.5
		c0-1,0.6-1.6,1.3-1.6c0.4,0,0.7,0.2,0.9,0.4h0v-1.7H38.7z M38.2,107c0-0.1,0-0.2,0-0.2c-0.1-0.3-0.4-0.6-0.8-0.6
		c-0.5,0-0.9,0.5-0.9,1.1c0,0.6,0.3,1.1,0.9,1.1c0.4,0,0.7-0.2,0.8-0.6c0-0.1,0-0.1,0-0.2V107z"/>
	<path fill="#575756" d="M39.9,107.4c0,0.7,0.5,1,1,1c0.4,0,0.6-0.1,0.8-0.1l0.1,0.4c-0.2,0.1-0.5,0.2-1,0.2c-0.9,0-1.4-0.6-1.4-1.5
		s0.5-1.6,1.4-1.6c0.9,0,1.2,0.8,1.2,1.4c0,0.1,0,0.2,0,0.2H39.9z M41.4,107c0-0.3-0.1-0.9-0.7-0.9c-0.5,0-0.8,0.5-0.8,0.9H41.4z"/>
	<path fill="#575756" d="M44.2,108.7l0-0.4h0c-0.2,0.2-0.5,0.4-0.9,0.4c-0.6,0-0.9-0.4-0.9-0.8c0-0.7,0.6-1.1,1.7-1.1v-0.1
		c0-0.2-0.1-0.7-0.7-0.7c-0.3,0-0.6,0.1-0.8,0.2l-0.1-0.3c0.2-0.2,0.6-0.3,1-0.3c0.9,0,1.1,0.6,1.1,1.2v1.1c0,0.3,0,0.5,0,0.7H44.2z
		 M44.1,107.2c-0.6,0-1.2,0.1-1.2,0.7c0,0.3,0.2,0.5,0.5,0.5c0.4,0,0.6-0.2,0.7-0.5c0-0.1,0-0.1,0-0.2V107.2z"/>
</g>
<circle fill-rule="evenodd" clip-rule="evenodd" fill="#575756" cx="92" cy="51.8" r="1.4"/>
<rect x="91.9" y="52.1" fill="#575756" width="0.2" height="27"/>
<g>
	<g>
		<path fill="#575756" d="M81.5,85.7c0.3,0,0.6-0.1,1-0.1c0.5,0,0.9,0.1,1.1,0.3c0.2,0.2,0.4,0.5,0.4,0.8c0,0.4-0.1,0.7-0.3,0.9
			c-0.3,0.3-0.7,0.4-1.2,0.4c-0.2,0-0.3,0-0.4,0v1.6h-0.5V85.7z M82,87.7c0.1,0,0.3,0,0.4,0c0.6,0,1-0.3,1-0.9c0-0.5-0.4-0.8-1-0.8
			c-0.2,0-0.4,0-0.5,0V87.7z"/>
		<path fill="#575756" d="M86.2,89.7l0-0.4h0c-0.2,0.2-0.5,0.4-0.9,0.4c-0.6,0-0.9-0.4-0.9-0.8c0-0.7,0.6-1.1,1.7-1.1v-0.1
			c0-0.2-0.1-0.7-0.7-0.7c-0.3,0-0.6,0.1-0.8,0.2L84.5,87c0.2-0.2,0.6-0.3,1-0.3c0.9,0,1.1,0.6,1.1,1.2V89c0,0.3,0,0.5,0,0.7H86.2z
			 M86.1,88.2c-0.6,0-1.2,0.1-1.2,0.7c0,0.3,0.2,0.5,0.5,0.5c0.4,0,0.6-0.2,0.7-0.5c0-0.1,0-0.1,0-0.2V88.2z"/>
		<path fill="#575756" d="M88,86c0,0.2-0.1,0.3-0.3,0.3c-0.2,0-0.3-0.1-0.3-0.3c0-0.2,0.1-0.3,0.3-0.3C87.9,85.7,88,85.8,88,86z
			 M87.4,89.7v-2.9H88v2.9H87.4z"/>
		<path fill="#575756" d="M88.8,87.6c0-0.3,0-0.5,0-0.8h0.5l0,0.5h0c0.1-0.3,0.5-0.5,1-0.5c0.4,0,1,0.2,1,1.2v1.7h-0.5V88
			c0-0.5-0.2-0.9-0.7-0.9c-0.3,0-0.6,0.2-0.7,0.5c0,0.1,0,0.2,0,0.2v1.7h-0.5V87.6z"/>
		<path fill="#575756" d="M92.8,86v0.8h0.8v0.4h-0.8v1.6c0,0.4,0.1,0.6,0.4,0.6c0.1,0,0.2,0,0.3,0l0,0.4c-0.1,0-0.3,0.1-0.5,0.1
			c-0.2,0-0.4-0.1-0.6-0.2c-0.1-0.2-0.2-0.4-0.2-0.8v-1.6h-0.4v-0.4h0.4v-0.7L92.8,86z"/>
		<path fill="#575756" d="M94.7,86c0,0.2-0.1,0.3-0.3,0.3c-0.2,0-0.3-0.1-0.3-0.3c0-0.2,0.1-0.3,0.3-0.3
			C94.6,85.7,94.7,85.8,94.7,86z M94.1,89.7v-2.9h0.5v2.9H94.1z"/>
		<path fill="#575756" d="M95.5,87.6c0-0.3,0-0.5,0-0.8H96l0,0.5h0c0.1-0.3,0.5-0.5,1-0.5c0.4,0,1,0.2,1,1.2v1.7h-0.5V88
			c0-0.5-0.2-0.9-0.7-0.9c-0.3,0-0.6,0.2-0.7,0.5c0,0.1,0,0.2,0,0.2v1.7h-0.5V87.6z"/>
		<path fill="#575756" d="M101.4,86.8c0,0.2,0,0.4,0,0.8v1.7c0,0.7-0.1,1.1-0.4,1.3c-0.3,0.3-0.7,0.3-1.1,0.3c-0.3,0-0.7-0.1-1-0.2
			l0.1-0.4c0.2,0.1,0.5,0.2,0.9,0.2c0.5,0,0.9-0.3,0.9-1v-0.3h0c-0.2,0.3-0.5,0.5-0.9,0.5c-0.7,0-1.2-0.6-1.2-1.4
			c0-1,0.6-1.5,1.3-1.5c0.5,0,0.8,0.3,0.9,0.5h0l0-0.4H101.4z M100.8,88c0-0.1,0-0.2,0-0.2c-0.1-0.3-0.4-0.6-0.7-0.6
			c-0.5,0-0.9,0.4-0.9,1.1c0,0.6,0.3,1,0.9,1c0.3,0,0.6-0.2,0.7-0.5c0-0.1,0-0.2,0-0.3V88z"/>
	</g>
</g>
<circle fill-rule="evenodd" clip-rule="evenodd" fill="#575756" cx="149.9" cy="51.8" r="1.4"/>
<rect x="149.8" y="52.1" fill="#575756" width="0.2" height="48.5"/>
<g>
	<g>
		<path fill="#575756" d="M120.1,104.7c0.3-0.1,0.6-0.1,1-0.1c0.6,0,0.9,0.1,1.2,0.3c0.2,0.2,0.3,0.5,0.3,0.8c0,0.5-0.3,0.9-0.8,1v0
			c0.3,0.1,0.5,0.4,0.6,0.8c0.1,0.6,0.2,1,0.3,1.1h-0.5c-0.1-0.1-0.2-0.5-0.3-1c-0.1-0.6-0.3-0.8-0.8-0.8h-0.5v1.8h-0.5V104.7z
			 M120.6,106.6h0.5c0.6,0,0.9-0.3,0.9-0.8c0-0.5-0.4-0.7-0.9-0.8c-0.3,0-0.4,0-0.5,0V106.6z"/>
		<path fill="#575756" d="M123.6,107.4c0,0.7,0.5,1,1,1c0.4,0,0.6-0.1,0.8-0.1l0.1,0.4c-0.2,0.1-0.5,0.2-1,0.2
			c-0.9,0-1.4-0.6-1.4-1.5s0.5-1.6,1.4-1.6c0.9,0,1.2,0.8,1.2,1.4c0,0.1,0,0.2,0,0.2H123.6z M125.1,107c0-0.3-0.1-0.9-0.7-0.9
			c-0.5,0-0.8,0.5-0.8,0.9H125.1z"/>
		<path fill="#575756" d="M126.2,108.2c0.2,0.1,0.4,0.2,0.7,0.2c0.4,0,0.6-0.2,0.6-0.4c0-0.3-0.1-0.4-0.5-0.5
			c-0.5-0.2-0.8-0.5-0.8-0.8c0-0.5,0.4-0.9,1-0.9c0.3,0,0.6,0.1,0.7,0.2l-0.1,0.4c-0.1-0.1-0.3-0.2-0.6-0.2c-0.3,0-0.5,0.2-0.5,0.4
			c0,0.2,0.2,0.3,0.6,0.5c0.5,0.2,0.8,0.4,0.8,0.9c0,0.5-0.4,0.9-1.1,0.9c-0.3,0-0.6-0.1-0.8-0.2L126.2,108.2z"/>
		<path fill="#575756" d="M128.7,106.8c0-0.4,0-0.7,0-0.9h0.5l0,0.5h0c0.2-0.4,0.6-0.6,1-0.6c0.7,0,1.2,0.6,1.2,1.5
			c0,1-0.6,1.6-1.3,1.6c-0.4,0-0.7-0.2-0.9-0.5h0v1.6h-0.5V106.8z M129.2,107.5c0,0.1,0,0.1,0,0.2c0.1,0.4,0.4,0.6,0.8,0.6
			c0.6,0,0.9-0.5,0.9-1.1c0-0.6-0.3-1.1-0.9-1.1c-0.4,0-0.7,0.3-0.8,0.7c0,0.1,0,0.1,0,0.2V107.5z"/>
		<path fill="#575756" d="M134.7,107.2c0,1.1-0.7,1.5-1.4,1.5c-0.8,0-1.4-0.6-1.4-1.5c0-1,0.6-1.5,1.4-1.5
			C134.2,105.7,134.7,106.3,134.7,107.2z M132.4,107.3c0,0.6,0.4,1.1,0.9,1.1c0.5,0,0.9-0.5,0.9-1.1c0-0.5-0.2-1.1-0.9-1.1
			C132.7,106.1,132.4,106.7,132.4,107.3z"/>
		<path fill="#575756" d="M135.4,106.6c0-0.3,0-0.5,0-0.8h0.5l0,0.5h0c0.1-0.3,0.5-0.5,1-0.5c0.4,0,1,0.2,1,1.2v1.7h-0.5V107
			c0-0.5-0.2-0.9-0.7-0.9c-0.3,0-0.6,0.2-0.7,0.5c0,0.1,0,0.2,0,0.2v1.7h-0.5V106.6z"/>
		<path fill="#575756" d="M138.6,108.2c0.2,0.1,0.4,0.2,0.7,0.2c0.4,0,0.6-0.2,0.6-0.4c0-0.3-0.1-0.4-0.5-0.5
			c-0.5-0.2-0.8-0.5-0.8-0.8c0-0.5,0.4-0.9,1-0.9c0.3,0,0.6,0.1,0.7,0.2l-0.1,0.4c-0.1-0.1-0.3-0.2-0.6-0.2c-0.3,0-0.5,0.2-0.5,0.4
			c0,0.2,0.2,0.3,0.6,0.5c0.5,0.2,0.8,0.4,0.8,0.9c0,0.5-0.4,0.9-1.1,0.9c-0.3,0-0.6-0.1-0.8-0.2L138.6,108.2z"/>
		<path fill="#575756" d="M141.7,105c0,0.2-0.1,0.3-0.3,0.3c-0.2,0-0.3-0.1-0.3-0.3c0-0.2,0.1-0.3,0.3-0.3
			C141.6,104.7,141.7,104.8,141.7,105z M141.1,108.7v-2.9h0.5v2.9H141.1z"/>
		<path fill="#575756" d="M142.7,105.8l0.6,1.6c0.1,0.3,0.2,0.5,0.2,0.7h0c0.1-0.2,0.1-0.5,0.2-0.7l0.6-1.6h0.6l-1.1,2.9h-0.5
			l-1.1-2.9H142.7z"/>
		<path fill="#575756" d="M145.6,107.4c0,0.7,0.5,1,1,1c0.4,0,0.6-0.1,0.8-0.1l0.1,0.4c-0.2,0.1-0.5,0.2-1,0.2
			c-0.9,0-1.4-0.6-1.4-1.5s0.5-1.6,1.4-1.6c0.9,0,1.2,0.8,1.2,1.4c0,0.1,0,0.2,0,0.2H145.6z M147.2,107c0-0.3-0.1-0.9-0.7-0.9
			c-0.5,0-0.8,0.5-0.8,0.9H147.2z"/>
		<path fill="#575756" d="M150.1,108.7l-1-4h0.6l0.5,2c0.1,0.5,0.2,1,0.3,1.4h0c0.1-0.4,0.2-0.9,0.3-1.4l0.5-2h0.5l0.5,2.1
			c0.1,0.5,0.2,1,0.3,1.4h0c0.1-0.4,0.2-0.9,0.3-1.4l0.5-2h0.5l-1.1,4h-0.5l-0.5-2.1c-0.1-0.5-0.2-0.9-0.3-1.3h0
			c-0.1,0.4-0.2,0.8-0.3,1.3l-0.6,2.1H150.1z"/>
		<path fill="#575756" d="M154.6,107.4c0,0.7,0.5,1,1,1c0.4,0,0.6-0.1,0.8-0.1l0.1,0.4c-0.2,0.1-0.5,0.2-1,0.2
			c-0.9,0-1.4-0.6-1.4-1.5s0.5-1.6,1.4-1.6c0.9,0,1.2,0.8,1.2,1.4c0,0.1,0,0.2,0,0.2H154.6z M156.1,107c0-0.3-0.1-0.9-0.7-0.9
			c-0.5,0-0.8,0.5-0.8,0.9H156.1z"/>
		<path fill="#575756" d="M157.2,108.7c0-0.2,0-0.5,0-0.7v-3.5h0.5v1.8h0c0.2-0.3,0.5-0.5,1-0.5c0.7,0,1.2,0.6,1.2,1.5
			c0,1-0.7,1.6-1.3,1.6c-0.4,0-0.8-0.2-1-0.5h0l0,0.5H157.2z M157.8,107.5c0,0.1,0,0.1,0,0.2c0.1,0.4,0.4,0.6,0.8,0.6
			c0.6,0,0.9-0.4,0.9-1.1c0-0.6-0.3-1.1-0.9-1.1c-0.4,0-0.7,0.2-0.8,0.6c0,0.1,0,0.1,0,0.2V107.5z"/>
		<path fill="#575756" d="M162,104.7c0.3,0,0.7-0.1,1.1-0.1c0.8,0,1.3,0.2,1.6,0.5c0.4,0.3,0.6,0.8,0.6,1.5c0,0.7-0.2,1.2-0.6,1.6
			c-0.4,0.4-1,0.6-1.8,0.6c-0.4,0-0.7,0-0.9,0V104.7z M162.5,108.3c0.1,0,0.3,0,0.5,0c1.1,0,1.7-0.6,1.7-1.7c0-1-0.5-1.6-1.6-1.6
			c-0.3,0-0.5,0-0.6,0.1V108.3z"/>
		<path fill="#575756" d="M166.3,107.4c0,0.7,0.5,1,1,1c0.4,0,0.6-0.1,0.8-0.1l0.1,0.4c-0.2,0.1-0.5,0.2-1,0.2
			c-0.9,0-1.4-0.6-1.4-1.5s0.5-1.6,1.4-1.6c0.9,0,1.2,0.8,1.2,1.4c0,0.1,0,0.2,0,0.2H166.3z M167.8,107c0-0.3-0.1-0.9-0.7-0.9
			c-0.5,0-0.8,0.5-0.8,0.9H167.8z"/>
		<path fill="#575756" d="M168.9,108.2c0.2,0.1,0.4,0.2,0.7,0.2c0.4,0,0.6-0.2,0.6-0.4c0-0.3-0.1-0.4-0.5-0.5
			c-0.5-0.2-0.8-0.5-0.8-0.8c0-0.5,0.4-0.9,1-0.9c0.3,0,0.6,0.1,0.7,0.2l-0.1,0.4c-0.1-0.1-0.3-0.2-0.6-0.2c-0.3,0-0.5,0.2-0.5,0.4
			c0,0.2,0.2,0.3,0.6,0.5c0.5,0.2,0.8,0.4,0.8,0.9c0,0.5-0.4,0.9-1.1,0.9c-0.3,0-0.6-0.1-0.8-0.2L168.9,108.2z"/>
		<path fill="#575756" d="M171.9,105c0,0.2-0.1,0.3-0.3,0.3c-0.2,0-0.3-0.1-0.3-0.3c0-0.2,0.1-0.3,0.3-0.3
			C171.8,104.7,171.9,104.8,171.9,105z M171.4,108.7v-2.9h0.5v2.9H171.4z"/>
		<path fill="#575756" d="M175.3,105.8c0,0.2,0,0.4,0,0.8v1.7c0,0.7-0.1,1.1-0.4,1.3c-0.3,0.3-0.7,0.3-1.1,0.3c-0.3,0-0.7-0.1-1-0.2
			l0.1-0.4c0.2,0.1,0.5,0.2,0.9,0.2c0.5,0,0.9-0.3,0.9-1v-0.3h0c-0.2,0.3-0.5,0.5-0.9,0.5c-0.7,0-1.2-0.6-1.2-1.4
			c0-1,0.6-1.5,1.3-1.5c0.5,0,0.8,0.3,0.9,0.5h0l0-0.4H175.3z M174.7,107c0-0.1,0-0.2,0-0.2c-0.1-0.3-0.4-0.6-0.7-0.6
			c-0.5,0-0.9,0.4-0.9,1.1c0,0.6,0.3,1,0.9,1c0.3,0,0.6-0.2,0.7-0.5c0-0.1,0-0.2,0-0.3V107z"/>
		<path fill="#575756" d="M176.1,106.6c0-0.3,0-0.5,0-0.8h0.5l0,0.5h0c0.1-0.3,0.5-0.5,1-0.5c0.4,0,1,0.2,1,1.2v1.7H178V107
			c0-0.5-0.2-0.9-0.7-0.9c-0.3,0-0.6,0.2-0.7,0.5c0,0.1,0,0.2,0,0.2v1.7h-0.5V106.6z"/>
	</g>
</g>
<g>
	<g>
		<path fill-rule="evenodd" clip-rule="evenodd" fill="#575756" d="M139.2,21.5v20.2h20.2V21.5H139.2z M152.1,40.9H140V27.1h12.1
			V40.9z M158.6,40.9h-5.7V27.1h5.7V40.9z M158.6,26.3H140v-4h18.6V26.3z"/>
	</g>
</g>
</svg>
